<svg id="Layer_1" data-name="Layer 1" xmlns="http://www.w3.org/2000/svg" viewBox="0 0 52.32 48.95"><defs><style>.cls-1,.cls-3{fill:#4e7d4d;}.cls-10,.cls-13,.cls-2{fill:none;}.cls-11,.cls-2{stroke:#464141;}.cls-10,.cls-11,.cls-14,.cls-2,.cls-3,.cls-4,.cls-6,.cls-7,.cls-8,.cls-9{stroke-miterlimit:10;}.cls-2{stroke-width:1.46px;}.cls-12,.cls-13,.cls-3,.cls-4{stroke:#40823e;}.cls-3,.cls-4{stroke-width:0.18px;}.cls-4{fill:#81ac71;}.cls-5{fill:#40823e;}.cls-14,.cls-6{fill:#231f20;}.cls-10,.cls-14,.cls-6,.cls-7,.cls-8,.cls-9{stroke:#231f20;}.cls-6{stroke-width:0.21px;}.cls-7,.cls-9{fill:#fff;}.cls-7{stroke-width:0.05px;}.cls-8{fill:#d1d1d1;stroke-width:0.19px;}.cls-9{stroke-width:0.1px;}.cls-10,.cls-12,.cls-13{stroke-linecap:round;}.cls-10{stroke-width:1.25px;}.cls-11{fill:#464141;}.cls-11,.cls-14{stroke-width:0.2px;}.cls-12{fill:#3bb24a;}.cls-12,.cls-13{stroke-linejoin:round;stroke-width:0.2px;}</style></defs><path class="cls-1" d="M49.3,31.6c0,9.11-5,17-12.6,20.4a30.08,30.08,0,0,1-3,.15A31,31,0,0,1,7.63,38,22.09,22.09,0,0,1,28.49,9.55,22.16,22.16,0,0,1,38.18,12,19.9,19.9,0,0,1,46,19.16,22.62,22.62,0,0,1,49.3,31.6Z" transform="translate(-2.67 -4.84)"/><path class="cls-2" d="M4.45,13.2a9.18,9.18,0,0,0-.53,3.85,16.47,16.47,0,0,0,.73,3.13,21.47,21.47,0,0,0,.87,2.46c.33.77,1.92,4.08,2.18,4.54" transform="translate(-2.67 -4.84)"/><path class="cls-2" d="M48.07,36.76l.66,2.73A13.07,13.07,0,0,0,49.47,42a14.25,14.25,0,0,0,1,1.8,17.38,17.38,0,0,0,1.13,1.66,11.62,11.62,0,0,0,1.34,1.4" transform="translate(-2.67 -4.84)"/><path class="cls-3" d="M36.7,52a20.29,20.29,0,0,1-8.21,1.7A21.91,21.91,0,0,1,7.63,38,31,31,0,0,0,33.68,52.15,30.08,30.08,0,0,0,36.7,52Z" transform="translate(-2.67 -4.84)"/><path class="cls-4" d="M49.3,31.6c0,9.11-5,17-12.6,20.4a30.08,30.08,0,0,1-3,.15A31,31,0,0,1,7.63,38,22.09,22.09,0,0,1,28.49,9.55,22.16,22.16,0,0,1,38.18,12,19.9,19.9,0,0,1,46,19.16,22.62,22.62,0,0,1,49.3,31.6Z" transform="translate(-2.67 -4.84)"/><path class="cls-5" d="M40.81,40.93c-3.72,3.86-8.75,3.52-10,3.44S25,44,22,40.23a11.21,11.21,0,0,1-1.54-11.17,3.7,3.7,0,0,0,4.42-5.8l.12-.09a12.1,12.1,0,0,1,7-2.05,12.32,12.32,0,0,1,6.93,2.34l.25.2a3.71,3.71,0,1,0,4.26,5.77A10.51,10.51,0,0,1,44,32.35,11.91,11.91,0,0,1,40.81,40.93Z" transform="translate(-2.67 -4.84)"/><path class="cls-6" d="M44.26,27.1a3.63,3.63,0,0,1-.83,2.32s0,0,0,0a3.71,3.71,0,1,1-4.26-5.77,3.7,3.7,0,0,1,5.09,3.44Z" transform="translate(-2.67 -4.84)"/><circle class="cls-7" cx="38.73" cy="20.55" r="0.46"/><circle class="cls-8" cx="38.52" cy="23.03" r="1.6"/><circle class="cls-9" cx="36.47" cy="20.92" r="0.83"/><path class="cls-10" d="M26,32.05a3.1,3.1,0,0,0,.4,2.29,2.24,2.24,0,0,0,1,.9,2.43,2.43,0,0,0,1.59.1,10.9,10.9,0,0,1,1.45-.55,1.41,1.41,0,0,1,.7,0c.33.11.4.31.75.6a2.91,2.91,0,0,0,1.19.6,2.36,2.36,0,0,0,1.2,0,1.77,1.77,0,0,0,.85-.5,2.73,2.73,0,0,0,.35-.7,7.85,7.85,0,0,0,.35-1c.05-.23.11-.51.15-.84" transform="translate(-2.67 -4.84)"/><circle class="cls-11" cx="2.06" cy="7.99" r="1.96"/><circle class="cls-11" cx="50.26" cy="42.33" r="1.96"/><path class="cls-12" d="M11.59,8.7,10.48,6.51a.33.33,0,0,1,0-.17.33.33,0,0,0,.17,0A.4.4,0,0,0,11,6a.65.65,0,0,0,0-.21l.07,0a.35.35,0,0,0,.32.24.33.33,0,0,0,.23-.1s0,0,0,.05l1.1,2.2a.44.44,0,0,1-.19.59l-.36.17A.42.42,0,0,1,11.59,8.7Z" transform="translate(-2.67 -4.84)"/><path class="cls-12" d="M14,11.5l-.38.19a.4.4,0,0,1-.56-.19l-1-2a.43.43,0,0,1,.18-.57l.39-.19a.42.42,0,0,1,.56.19l1,2A.41.41,0,0,1,14,11.5Z" transform="translate(-2.67 -4.84)"/><path class="cls-12" d="M13.1,7.85,12,5.66s0,0,0-.06a.39.39,0,0,0,.21-.13.33.33,0,0,0,0-.4l.08,0a.61.61,0,0,0,.13.16.4.4,0,0,0,.56-.09A.41.41,0,0,0,13,4.94a.35.35,0,0,1,.11.13l1.11,2.2a.43.43,0,0,1-.19.59L13.69,8A.43.43,0,0,1,13.1,7.85Z" transform="translate(-2.67 -4.84)"/><path class="cls-12" d="M15.5,10.63l-.38.19a.44.44,0,0,1-.57-.18l-1-2A.42.42,0,0,1,13.72,8l.38-.2a.44.44,0,0,1,.57.19l1,2A.43.43,0,0,1,15.5,10.63Z" transform="translate(-2.67 -4.84)"/><line class="cls-13" x1="11.21" y1="6.73" x2="13.83" y2="11.64"/><line class="cls-13" x1="12.77" y1="5.9" x2="15.39" y2="10.81"/><line class="cls-13" x1="11.58" y1="7.42" x2="13.07" y2="6.58"/><path class="cls-14" d="M25.86,25.76a3.71,3.71,0,0,1-5.4,3.3h0a3.67,3.67,0,0,1-2-3.29,3.72,3.72,0,0,1,3.72-3.71,3.73,3.73,0,0,1,3.7,3.71Z" transform="translate(-2.67 -4.84)"/><circle class="cls-8" cx="20.22" cy="21.76" r="1.6"/><circle class="cls-9" cx="18.17" cy="19.52" r="0.83"/><circle class="cls-7" cx="20.38" cy="19.11" r="0.46"/></svg>