<?xml version="1.0" encoding="utf-8"?>
<!-- Generator: Adobe Illustrator 26.0.1, SVG Export Plug-In . SVG Version: 6.00 Build 0)  -->
<svg version="1.1" id="Layer_1" xmlns="http://www.w3.org/2000/svg" xmlns:xlink="http://www.w3.org/1999/xlink" x="0px" y="0px"
	 viewBox="0 0 384.3 89" style="enable-background:new 0 0 384.3 89;" xml:space="preserve">
<style type="text/css">
	.st0{fill:#E7E8CB;}
	.st1{fill:#A7BA9A;}
	.st2{fill:#DC9F33;}
	.st3{fill:#523544;}
	.st4{enable-background:new    ;}
	.st5{fill:#F9AF7B;}
</style>
<path class="st0" d="M19.3,72.6C32,80,60.1,82.5,82.1,78.3s29.6-13.6,16.9-21s-40.8-9.9-62.8-5.7S6.6,65.2,19.3,72.6L19.3,72.6z"/>
<path class="st1" d="M27.9,53.2c-22,4.2-29.6,13.6-16.9,21c-11.4-6.7-4.6-15.1,15.2-18.9s45-1.5,56.3,5.1s4.6,15-15.2,18.8
	c-19.7,3.8-45,1.5-56.3-5.1c12.7,7.4,40.8,9.9,62.8,5.7s29.6-13.6,16.9-21S49.9,49,27.9,53.2z"/>
<path class="st2" d="M33.1,69.9c5.6,3.3,18.1,4.4,27.9,2.5s13.2-6.1,7.5-9.3l0,0c-5.6-3.3-18.2-4.4-28-2.5S27.5,66.7,33.1,69.9z"/>
<path class="st3" d="M76.2,81.3C51.9,85.9,20.8,83.1,6.8,75S1.1,56.4,25.5,51.8c14.2-2.5,28.6-2.9,42.9-1.2c2.5,0.3,3.8,1.2,2.9,2.1
	s-3.7,1.3-6.2,1c-11.6-1.4-23.3-1.1-34.8,1C10.6,58.4,3.8,66.8,15.1,73.4s36.5,8.9,56.2,5.1c19.2-3.7,26.2-12,15.6-18.5
	c-1.3-0.8-0.5-1.8,1.9-2.2s5.3-0.1,6.6,0.7C108.6,66.5,99.9,76.7,76.2,81.3z"/>
<path class="st3" d="M86.6,57.3c-2,0.4-4,0.3-5.9-0.3c-1.7-0.6-3.5-1.1-5.4-1.6c-2.1-0.5-2.6-1.5-1-2.3c2.2-0.8,4.5-0.9,6.8-0.3
	c2.4,0.6,4.7,1.3,6.7,2c1.8,0.6,1.8,1.7-0.2,2.3C87.2,57.2,86.9,57.3,86.6,57.3z"/>
<path class="st2" d="M51.8,63.2c-2,0-4-1-6.3-3.2c-3.6-3.4-7.9-9.8-11.4-17.2c-3.6-7.6-5.7-14.8-5.7-19.5C28.4,10.5,38.8,0,51.7,0
	s23.4,10.5,23.4,23.4c0,0,0,0,0,0c-0.2,3.9-1,7.8-2.4,11.5c-1.5,4.3-3.4,8.5-5.6,12.5c-2,3.7-4.3,7.3-7,10.5c-3,3.4-5.6,5.2-8,5.3
	L51.8,63.2L51.8,63.2z M51.8,5.5c-9.9,0-17.9,8-17.9,17.8c0,0,0,0,0,0c0,4.7,3,13.3,7.4,21.4c1.8,3.4,4,6.6,6.4,9.6
	c2.8,3.2,4,3.3,4.1,3.3s1.3-0.1,4.1-3.4c2.4-3,4.6-6.2,6.4-9.6c4.4-8,7.3-16.6,7.3-21.3C69.6,13.5,61.6,5.6,51.8,5.5L51.8,5.5z"/>
<path class="st2" d="M51.8,33.6c-5.8,0-10.5-4.7-10.5-10.5s4.7-10.5,10.5-10.5s10.5,4.7,10.5,10.5v0C62.2,28.9,57.5,33.6,51.8,33.6z
	 M51.8,18.1c-2.8,0-5,2.2-5,5s2.2,5,5,5s5-2.2,5-5S54.5,18.1,51.8,18.1z"/>
<g class="st4">
	<path class="st5" d="M123.7,73.1c0-0.1,0-0.3,0.1-0.6c0.1-0.3,0.2-0.5,0.2-0.5c0-0.1,0-0.2,0-0.6c0-0.3,0-0.5,0-0.6
		c0-0.1,0.1-0.2,0.2-0.4c0.1-0.2,0.2-0.3,0.2-0.4c0-0.3,0-0.9,0.1-1.9c0.1-1,0.1-1.6,0.1-1.9c0,0.1,0,0.1,0.1,0.1l0.1,0.1
		c0.1,0.1,0.1,0.2,0.2,0.4c0.1,0.2,0.2,0.3,0.2,0.4l0.1,0.1l0.3-0.1l0.2-0.2l0.2-0.2c-0.1-0.1-0.2-0.3-0.4-0.6
		c-0.2-0.3-0.3-0.5-0.4-0.6v-0.2v-0.2c0.1-0.1,0.2-0.2,0.4-0.6c0.2-0.3,0.3-0.5,0.3-0.6c0-0.1,0-0.2,0-0.4c0-0.2,0-0.3,0-0.4
		c-0.1,0-0.2,0-0.4,0.1c-0.1,0.1-0.2,0.1-0.3,0c-0.1,0-0.1-0.1-0.3-0.2c-0.1-0.1-0.2-0.2-0.2-0.3c0.1-0.1,0.2-0.2,0.4-0.4
		c0.1-0.2,0.3-0.3,0.4-0.4v-0.5v-0.6c-0.1-0.1-0.1-0.2-0.2-0.4c-0.1-0.2-0.1-0.3-0.2-0.3c-0.1-0.1-0.2-0.3-0.4-0.5
		c-0.2-0.2-0.4-0.3-0.4-0.4c-0.1-0.1-0.2-0.2-0.2-0.5c0-0.3,0-0.5,0-0.5h0.5c0-0.2,0-0.6,0-1.2c0-0.6,0-1,0-1.1c0-0.1,0-0.5-0.1-1.2
		s-0.2-1.2-0.2-1.5c-0.1,0-0.1-0.2-0.2-0.7c-0.1-0.4-0.1-0.7-0.1-0.8v-0.2v-0.3c0.1-0.1,0.2-0.5,0.6-1.1c0.3-0.6,0.5-1,0.6-1.1v-0.2
		v-0.3c-0.1-0.1-0.2-0.1-0.4-0.2c-0.2-0.1-0.3-0.1-0.4-0.2c-0.1-0.1-0.1-0.2-0.2-0.4c-0.1-0.2-0.1-0.3-0.2-0.4v-0.3v-0.2
		c0-0.1,0-0.4,0.1-0.9c0.1-0.6,0.2-0.9,0.2-1V45v-0.3c-0.1-0.1-0.1-0.2-0.2-0.4c-0.1-0.2-0.1-0.3-0.1-0.4c0-0.1,0-0.4,0.1-1
		s0.2-0.8,0.2-0.9c0.1-0.2,0.1-0.7,0.2-1.4c0.1-0.7,0.1-1.4,0.2-2.1c0.1-0.7,0.2-1.4,0.3-2.1c0.1-0.6,0.1-1.1,0.1-1.4
		c0.1,0,0.1-0.1,0.2-0.3s0.1-0.3,0.1-0.4c0-0.1-0.1-0.2-0.2-0.6c-0.1-0.3-0.2-0.5-0.2-0.6c0-0.1,0-0.2,0-0.4c0-0.2,0-0.3,0-0.4h-1.2
		c0-0.1,0-0.2,0.1-0.4c0.1-0.2,0.1-0.3,0.3-0.4c0-0.1,0-0.1,0.1-0.2c0.1-0.1,0.2-0.2,0.2-0.2c0.1,0,0.2,0,0.4-0.1
		c0.2-0.1,0.3-0.1,0.4-0.3c0.1-0.1,0.1-0.2,0.2-0.4s0.1-0.3,0.1-0.4V30v-0.1l-0.4-0.2c-0.2-0.1-0.4-0.2-0.4-0.3
		c-0.2-0.1-0.6-0.2-1.1-0.4c-0.2-0.1-0.5-0.2-0.8-0.4h-1.7h-1.7c-0.1,0.1-0.4,0.2-0.8,0.4c-0.4,0.2-0.7,0.3-0.8,0.4
		c-0.2,0-0.4-0.1-0.4-0.4c0-0.1-0.1-0.2-0.2-0.4c-0.1-0.2-0.2-0.3-0.2-0.4c-0.1-0.1-0.3-0.3-0.4-0.4c-0.1-0.2-0.3-0.3-0.4-0.4h-0.2
		h-0.2c-0.1,0-0.1,0-0.3,0.1c-0.1,0.1-0.2,0.2-0.2,0.3c-0.1,0.1-0.1,0.2-0.1,0.4v0.4c0-0.1,0-0.1-0.1-0.1c-0.1,0-0.2,0-0.2-0.1
		c-0.1,0-0.3-0.1-0.6-0.4s-0.4-0.5-0.5-0.6c-0.1-0.1-0.3-0.4-0.6-0.8c-0.3-0.4-0.5-0.6-0.6-0.7c-0.1-0.1-0.1-0.1-0.2-0.2
		c-0.1-0.1-0.1-0.1-0.2-0.1h-0.5H112c-0.1,0-0.1-0.1-0.2-0.2c-0.1-0.1-0.2-0.2-0.2-0.3l-0.1-0.2c0-0.1,0-0.1,0.1-0.2
		c0.1-0.1,0.2-0.2,0.4-0.2c0.2,0,0.3-0.1,0.3-0.1v-0.3c0-0.1,0-0.2,0-0.3c0-0.1,0-0.1,0-0.2c0-0.1,0-0.1,0-0.2c0-0.1,0-0.2,0-0.3V23
		c0-0.1,0-0.2-0.1-0.4s-0.1-0.3-0.1-0.4c0-0.1,0-0.2,0-0.4c0-0.2,0-0.4,0-0.5v-0.5c0-0.1,0-0.2,0.1-0.4c0-0.1,0-0.3,0.1-0.6
		c0.1-0.3,0.1-0.5,0.1-0.5v-1.2c0-0.1,0-0.1,0.1-0.1c0.1,0,0.1,0,0.2-0.1l0.2-0.2c0.1,0.1,0.4,0.3,0.8,0.6c0.4,0.3,0.6,0.5,0.8,0.6
		c0.1,0.1,0.2,0.1,0.4-0.1c0.1-0.1,0.1-0.1,0.2-0.1v-2l0.5,2.7h0.4h0.4c0.3-0.1,0.4-0.3,0.4-0.4V17l2.3,0.4v0.2v0.2
		c-0.1,0.1-0.2,0.3-0.3,0.6c-0.1,0.3-0.2,0.5-0.1,0.6c0.1,0.1,0.1,0.1,0.3,0.2c0.1,0.1,0.2,0.1,0.3,0.2c0.1,0.1,0.1,0.1,0.3,0.1
		c0.1,0.1,0.3,0.1,0.7,0.2c0.4,0.1,0.7,0.1,0.8,0.2v0.2V20c0,0.1-0.1,0.3-0.4,0.7c-0.2,0.4-0.4,0.7-0.4,0.8
		c-0.1,0.1-0.1,0.1-0.1,0.2v0.3v0.2c0,0.1,0,0.1,0.1,0.2l0.7,0.4h0.2h0.3c0.1-0.1,0.4-0.2,0.8-0.4c0.4-0.2,0.6-0.3,0.8-0.4
		c0.1-0.1,0.2-0.2,0.4-0.4s0.3-0.3,0.4-0.4V21v-0.3l-0.4-0.7c0-0.1,0.1-0.3,0.4-0.6c0.2-0.3,0.4-0.5,0.4-0.6c0-0.1,0-0.2,0-0.4
		c0-0.2,0-0.4,0-0.4c0.1-0.1,0.2-0.1,0.5-0.2c0.3-0.1,0.5-0.1,0.5-0.1c0.1-0.1,0.2-0.2,0.6-0.4c0.3-0.2,0.5-0.3,0.6-0.3h0.4
		c0.1,0,0.2,0,0.4,0c0.1,0,0.2,0,0.4,0c0.1,0,0.2,0,0.3,0c0.1,0,0.3,0,0.4,0h0.4l0.4,0.4c0.1,0,0.2,0,0.4,0.1
		c0.2,0.1,0.3,0.2,0.3,0.2v1.6c0,0.1,0.1,0.1,0.2,0.2c0.1,0.1,0.2,0.1,0.3,0.2c0.1-0.1,0.1-0.2,0.2-0.4c0.1-0.1,0.1-0.3,0.2-0.4
		c0.1-0.1,0.3-0.3,0.4-0.5c0.2-0.2,0.3-0.3,0.4-0.3c0.1-0.1,0.2,0,0.4,0.2c0.2,0.2,0.3,0.3,0.4,0.3h0.4h0.4c0.1,0,0.2-0.1,0.5-0.2
		c0.3-0.1,0.5-0.2,0.5-0.2c0.1,0,0.3,0.1,0.5,0.2c0.2,0.1,0.3,0.2,0.4,0.2c0.1,0,0.2,0,0.6,0.1c0.3,0.1,0.5,0.1,0.7,0.1
		c0,0.1,0,0.4-0.1,0.8c-0.1,0.4-0.1,0.7-0.1,1c0,0.2-0.1,0.3-0.4,0.3h-0.4v3.4c0.1-0.1,0.1-0.2,0.2-0.4c0.1-0.2,0.2-0.3,0.2-0.4
		c0.1-0.1,0.3-0.2,0.6-0.5c0.3-0.3,0.5-0.5,0.5-0.6c0.1-0.1,0.3-0.4,0.4-0.9c0.2-0.5,0.3-0.8,0.3-0.9c0-0.1,0-0.1,0.1-0.2
		c0.1-0.1,0.1-0.2,0.2-0.3c0.1-0.1,0.1-0.2,0.2-0.3l0.2-0.2c0,0.1,0,0.2,0.1,0.4c0.1,0.2,0.1,0.4,0.1,0.5c0.2,0.2,0.3,0.3,0.4,0.3
		c0.1-0.1,0.3-0.2,0.6-0.5c0.3-0.3,0.5-0.5,0.6-0.5l0.2-0.1l0.1,0.1l0.2,0.5l0.2,0.5c0.1,0.1,0.1,0.1,0.3,0.2
		c0.1,0.1,0.2,0.2,0.3,0.2h0.4h0.4c0.1,0.1,0.3,0.2,0.6,0.4c0.3,0.2,0.5,0.3,0.6,0.4c0.1,0.1,0.2,0.2,0.3,0.4
		c0.1,0.2,0.1,0.3,0.1,0.4c0-0.1,0-0.2,0.1-0.4s0.2-0.3,0.2-0.4v-0.4c0.1-0.1,0.1-0.2,0.2-0.4s0.2-0.3,0.2-0.4
		c0,0.1,0.1,0.3,0.3,0.5c0.2,0.2,0.3,0.3,0.4,0.3c0.2,0.1,0.5,0.1,0.8,0.2c0.4,0.1,0.6,0.1,0.8,0.1c0,0.2,0,0.4-0.1,0.5
		c-0.1,0.1-0.1,0.2-0.2,0.4c-0.1,0.2-0.1,0.3-0.1,0.4c-0.1,0.1-0.1,0.4,0,1c0,0.5,0,0.9,0,1c0,0.1,0,0.2-0.1,0.4
		c-0.1,0.2-0.2,0.4-0.3,0.7c-0.1,0.3-0.2,0.5-0.3,0.8c-0.1,0.2-0.1,0.4-0.1,0.4v0.6v0.5c0.1,0.1,0.1,0.2,0.2,0.5
		c0.1,0.3,0.2,0.5,0.2,0.5c0,0.1,0,0.2,0,0.4c0,0.2,0,0.3,0,0.4c0,0.1,0.1,0.2,0.2,0.3c0.1,0.1,0.2,0.1,0.3,0.1c0,0.1,0,0.1,0.1,0.1
		h0.3h0.2c0.1,0,0.1,0,0.1-0.1c0.1,0,0.1-0.2,0.3-0.5c0.1-0.4,0.2-0.6,0.2-0.6c0-0.1,0.1-0.1,0.4-0.2c0.2-0.1,0.4-0.1,0.4-0.2
		c0.1-0.1,0.1-0.2,0.2-0.5c0.1-0.3,0.1-0.5,0.2-0.5c0-0.1,0-0.4,0-0.8c0-0.4,0-0.6,0-0.7h-0.7c0.1-0.1,0.3-0.3,0.6-0.6
		c0.3-0.3,0.5-0.5,0.6-0.6c-0.1,0-0.1,0-0.1-0.1V25v-0.3c-0.1,0-0.2,0-0.4,0.1c-0.1,0.1-0.2,0.1-0.3,0.1c-0.1,0-0.1-0.1-0.3-0.2
		l-0.2-0.2c-0.1-0.1-0.2-0.1-0.4-0.2c-0.2-0.1-0.3-0.2-0.4-0.2v-0.4v-0.4c0.1-0.1,0.2-0.1,0.4-0.3c0.2-0.1,0.3-0.2,0.4-0.2h0.4h0.4
		c0.1,0,0.3,0.1,0.4,0.2c0.2,0.1,0.3,0.2,0.4,0.3c0.1,0.1,0.1,0.3,0.1,0.7c0,0.4,0.1,0.7,0.1,0.8c0,0.1,0,0.2,0,0.4
		c0,0.2,0,0.4,0,0.7c0,0.3,0,0.5,0,0.8c0,0.2,0,0.4,0,0.4c0.1,0.2,0.1,0.4,0.2,0.8s0.2,0.7,0.4,1.1c0.1,0.4,0.3,0.8,0.4,1.1
		c0.1,0.4,0.2,0.6,0.3,0.7c0.1,0,0.2,0,0.4-0.1c0.2-0.1,0.3-0.2,0.4-0.2c0.1,0,0.1-0.1,0.3-0.2c0.1-0.1,0.2-0.2,0.2-0.3v-2.6
		c0-0.2,0.1-0.4,0.4-0.4l0.2-0.1l0.2,0.1c0.1,0.1,0.4,0.2,0.7,0.5c0.4,0.3,0.6,0.5,0.9,0.7c0,0.2,0.1,0.3,0.4,0.3
		c0,0.1,0,0.3,0.1,0.4s0.2,0.3,0.2,0.4c0,0.1,0,0.2,0,0.4c0,0.2,0,0.3,0,0.4h1c0,0.2,0,0.5,0,0.8c0,0.4,0.1,0.6,0.2,0.8
		c0,0.1,0.1,0.3,0.3,0.4c0.2,0.2,0.4,0.3,0.5,0.4c0,0.1,0.1,0.3,0.4,0.6c0.1,0.2,0.2,0.3,0.4,0.4v1v1c0,0.1-0.1,0.4-0.2,0.8
		c-0.1,0.4-0.2,0.6-0.2,0.7s0,0.2,0,0.4c0,0.2,0,0.3,0,0.4c0,0.1,0,0.1,0.1,0.1h0.2l0.2-0.2c0.1-0.1,0.2-0.2,0.2-0.3h0.3h0.2
		c0,0.1,0,0.4,0.1,0.8c0.1,0.4,0.2,0.7,0.2,0.8c0.1,0.1,0.2,0.4,0.5,0.8c0.3,0.4,0.5,0.6,0.6,0.8c-0.2,0-0.4,0.1-0.4,0.4
		c0,0.1,0,0.4,0.1,0.8c0.1,0.4,0.2,0.6,0.2,0.8c0,0.1,0,0.2,0,0.4c0,0.2,0,0.4,0,0.4l0.4,0.4l0.2,0.1c0.1,0,0.1,0,0.2-0.1
		c0.1-0.1,0.1-0.2,0.2-0.4c0.1-0.1,0.1-0.3,0.1-0.4c0-0.1,0-0.4-0.1-0.8c-0.1-0.4-0.2-0.6-0.2-0.8h0.2h0.2c0.2,0.1,0.4,0.1,0.7,0.2
		c0.3,0.1,0.4,0.2,0.5,0.2c0.1,0.1,0.3,0.2,0.6,0.5s0.5,0.5,0.6,0.5c-0.1,0.2-0.3,0.6-0.6,1.2c-0.3,0.6-0.5,1-0.6,1.1v0.3v0.4
		c0,0.1,0.1,0.1,0.2,0.2c0.1,0.1,0.2,0.2,0.2,0.2l0.1,0.4c0,0.1,0,0.2,0,0.4c0,0.1,0,0.2,0,0.3l-0.2,0.2c-0.1,0.1-0.1,0.1-0.1,0.2
		c0,0.1,0,0.1-0.1,0.1v0.4v0.6c0.1,0.1,0.1,0.3,0.2,0.6c0.1,0.3,0.1,0.5,0.1,0.6v0.2v0.1c0,0.1,0,0.3-0.1,0.6
		c-0.1,0.3-0.2,0.5-0.2,0.6c0,0.1,0,0.1-0.1,0.2c-0.1,0.1-0.2,0.2-0.2,0.2c0-0.1,0-0.1-0.1-0.3c-0.1-0.1-0.2-0.2-0.2-0.2
		c-0.2,0-0.3,0-0.4,0.1c-0.1,0.1-0.2,0.1-0.3,0.1v2.9c-0.1,0.1-0.3,0.2-0.5,0.4c-0.2,0.2-0.3,0.3-0.4,0.4c-0.1,0-0.2,0.2-0.3,0.5
		c-0.1,0.4-0.1,0.6-0.1,0.6c-0.1,0-0.1,0-0.2,0.1c-0.1,0.1-0.2,0.2-0.2,0.2c-0.1,0.1-0.2,0.1-0.4,0.3c-0.2,0.1-0.3,0.2-0.4,0.3
		l-1.9,3.6l-0.8-0.4c-0.1,0.1-0.2,0.4-0.5,0.8c-0.3,0.4-0.5,0.6-0.6,0.8l-0.4,0.4c0,0.1,0,0.3,0.1,0.5c0.1,0.2,0.2,0.3,0.2,0.4v0.1
		v0.2c-0.1,0.1-0.1,0.1-0.1,0.1c0,0,0,0.1-0.1,0.1l-0.2,0.2h-0.3h-0.2c-0.1-0.1-0.3-0.2-0.6-0.4s-0.5-0.3-0.6-0.4
		c-0.1,0-0.1,0-0.1,0.1c0,0.1-0.1,0.3-0.2,0.6c-0.1,0.4-0.1,0.6-0.1,0.7c0.1,0.1,0.2,0.2,0.4,0.4c0.2,0.1,0.3,0.1,0.4,0.1
		c0,0.1,0,0.3-0.1,0.4c-0.1,0.2-0.1,0.3-0.3,0.3c-0.1,0.1-0.2,0.2-0.4,0.3l-0.4,0.2c-0.1,0.1-0.1,0.1-0.3,0.2
		c-0.1,0.1-0.2,0.1-0.2,0.2c-0.1,0.1-0.2,0.4-0.5,0.8c-0.3,0.4-0.5,0.6-0.5,0.8c-0.1,0.1-0.3,0.3-0.6,0.6c-0.3,0.3-0.5,0.5-0.5,0.6
		c-0.1,0-0.1,0.1-0.3,0.4c-0.1,0.1-0.1,0.2-0.2,0.3c0,0.1-0.1,0.1-0.2,0.3l-0.2,0.2l-0.2,0.1c-0.1,0-0.1,0-0.2-0.1
		c-0.1-0.1-0.1-0.2-0.2-0.4c-0.1-0.2-0.2-0.3-0.2-0.4h-0.2h-0.2c0,0.1-0.1,0.4-0.2,0.8c-0.1,0.4-0.2,0.7-0.3,0.8
		c0,0.2-0.1,0.4-0.4,0.4c-0.1,0.1-0.2,0.3-0.4,0.6s-0.3,0.4-0.4,0.5c0-0.1-0.1-0.2-0.3-0.5s-0.4-0.5-0.5-0.5c-0.1,0-0.2,0-0.4,0.1
		c-0.2,0.1-0.3,0.2-0.4,0.2c-0.1,0.1-0.2,0.2-0.4,0.4c-0.2,0.2-0.3,0.3-0.4,0.3c-0.1,0-0.1-0.1-0.2-0.3c-0.1-0.2-0.1-0.3-0.2-0.4
		l-0.2-0.2l-0.2-0.2c-0.1,0-0.1,0.1-0.3,0.2c-0.1,0.1-0.2,0.2-0.3,0.2c0,0.1-0.1,0.2-0.3,0.5c-0.2,0.3-0.3,0.5-0.4,0.6
		c-0.1,0.1-0.2,0.3-0.5,0.4c-0.3,0.2-0.5,0.3-0.6,0.4c-0.1-0.1-0.1-0.1-0.1-0.2c0-0.1-0.1-0.2-0.1-0.2l-0.2-0.4
		c-0.1-0.1-0.1-0.2-0.2-0.3c-0.1-0.1-0.1-0.1-0.1-0.2h-0.3h-0.2c0,0.1-0.1,0.2-0.3,0.4c-0.2,0.2-0.3,0.4-0.4,0.4
		c-0.1,0.1-0.3,0.1-0.6,0.2c-0.3,0.1-0.5,0.2-0.5,0.2c-0.1,0.1-0.5,0.2-1.1,0.5c-0.6,0.3-1,0.5-1.1,0.5c0,0.1,0,0.1-0.1,0.1h-0.2
		c-0.1,0-0.1,0-0.2-0.1c0-0.1,0-0.3-0.1-0.6c-0.1-0.3-0.2-0.5-0.3-0.5c-0.1-0.1-0.2-0.1-0.5-0.2c-0.3-0.1-0.5-0.2-0.5-0.2l-0.2-0.2
		c-0.2-0.2-0.3-0.2-0.3-0.2l-0.1-0.1c-0.1,0-0.1,0-0.1,0c0,0,0,0-0.1,0h-0.1l-1.9,2.7c0,0.1-0.2,0.1-0.5,0.2
		c-0.3,0.1-0.5,0.1-0.7,0.2c-0.1,0.1-0.2,0.1-0.4,0.1h-0.4h-0.4c-0.1,0-0.2,0-0.3-0.1c-0.2,0-0.5-0.1-0.9-0.4
		c-0.1-0.1-0.3-0.3-0.6-0.4c-0.3-0.2-0.4-0.3-0.4-0.4c-0.1-0.1-0.1-0.3,0-0.6c0.1-0.3,0.1-0.5,0-0.5c-0.1-0.1-0.3-0.2-0.6-0.3
		c-0.3-0.1-0.5-0.1-0.6-0.2C123.9,73.5,123.7,73.4,123.7,73.1z M114.6,19.6c0-0.1-0.1-0.2-0.3-0.2s-0.2,0.1-0.2,0.2
		c0,0.1,0.1,0.2,0.2,0.2C114.5,19.8,114.6,19.8,114.6,19.6z M116,25.7h0.4v-0.4H116V25.7z M121.3,25.7c-0.1,0-0.2,0.1-0.2,0.4
		c0,0.3,0.1,0.4,0.2,0.4c0.2,0,0.4-0.1,0.4-0.4C121.7,25.9,121.6,25.7,121.3,25.7z M122.6,27.6h0.4v-0.4L122.6,27.6z M124.1,28
		c-0.2,0-0.3,0.1-0.3,0.3c0,0.2,0.1,0.3,0.3,0.3s0.3-0.1,0.3-0.3C124.4,28.1,124.3,28,124.1,28z M125.9,53.3c0.1,0,0,0.1-0.2,0.3
		l-0.2,0.2c-0.1,0.1-0.1,0.4-0.2,0.8c-0.1,0.4-0.1,0.6-0.1,0.7h0.6c0.2,0,0.4-0.1,0.4-0.4c0.1-0.1,0.1-0.4,0.2-0.8
		c0.1-0.4,0.2-0.7,0.2-0.8h-0.4H125.9z M125.6,70.5h0.4V70L125.6,70.5z M126.3,31.8h0.4v-0.4h-0.4V31.8z M126.7,37.1
		c-0.2,0-0.4,0.1-0.4,0.4c0,0.3,0.1,0.4,0.4,0.4c0.2,0,0.4-0.1,0.4-0.4C127.1,37.2,127,37.1,126.7,37.1z M126.7,68.9
		c0.1,0.2,0.1,0.4,0.2,0.7s0.2,0.4,0.2,0.4c0.1,0.1,0.2,0.3,0.3,0.4c0.1,0.2,0.2,0.3,0.3,0.4v-2.7c0-0.1-0.1-0.2-0.4-0.4h-0.1h-0.1
		c-0.1,0.1-0.1,0.2-0.2,0.4s-0.2,0.3-0.2,0.4v0.2V68.9z M127.8,54.6c0.1-0.1,0.1-0.2-0.1-0.2c-0.2,0-0.3,0.1-0.3,0.2
		C127.7,54.9,127.8,54.9,127.8,54.6z M127.8,30.6c-0.2,0-0.4,0.1-0.4,0.4c0,0.2,0.1,0.4,0.4,0.4c0.2,0,0.4-0.1,0.4-0.4
		C128.2,30.7,128,30.6,127.8,30.6z M128.2,27.6l-0.2,0.7c-0.1,0.2-0.1,0.4-0.1,0.6c0,0.2-0.1,0.4-0.1,0.5v0.2v0.3
		c0.1-0.1,0.3-0.2,0.5-0.4c0.2-0.2,0.3-0.3,0.3-0.4c0.1-0.1,0.1-0.4,0.2-0.8c0.1-0.4,0.1-0.6,0.1-0.8H128.2z M128.6,67.4L129,67
		l-0.4-0.4l-0.4,0.4L128.6,67.4z M130.9,65.9c-0.1,0-0.2,0.1-0.2,0.3s0.1,0.2,0.2,0.2c0.1-0.1,0.2-0.1,0.2-0.2
		C131.1,66,131,65.9,130.9,65.9z M131.2,67.1c0,0.1,0,0.1,0.1,0.3c0,0.1,0,0.2,0.1,0.4c0.1,0.2,0.1,0.3,0.1,0.4
		c0.1,0.1,0.1,0.4,0,0.8c0,0.4,0,0.6,0,0.7L132,70c0.1-0.1,0.2-0.2,0.3-0.5c0.1-0.3,0.1-0.5,0.1-0.6v-0.7v-0.8l-0.2-0.2
		c-0.1-0.1-0.1-0.1-0.1-0.1c0,0-0.1,0-0.1-0.1c-0.1,0-0.2,0-0.4-0.1h-0.3c-0.1,0-0.1,0-0.1-0.1V67.1z M133.9,65.5
		c0.1,0.2,0.3,0.5,0.7,1c0.4,0.5,0.7,0.8,0.8,0.8l0.2,0.1h0.2c0.1,0,0.1,0,0.1-0.1c0.1,0,0.2-0.1,0.3-0.4c0.1-0.2,0.3-0.4,0.4-0.4
		h1.1c0.1,0,0.1-0.1,0.2-0.4c0.1-0.2,0.1-0.4,0.2-0.4c0.1,0,0.4-0.1,0.8-0.3c0.4-0.2,0.6-0.3,0.8-0.4h0.3h0.1
		c0.1,0.1,0.1,0.1,0.3,0.2c0.1,0.1,0.2,0.1,0.3,0.1h0.4h0.4c0.1,0,0.1-0.1,0.2-0.3c0.1-0.2,0.1-0.4,0.1-0.5c0.1-0.1,0.2-0.1,0.4-0.2
		c0.2-0.1,0.4-0.1,0.4-0.2c0.1,0,0.3-0.2,0.6-0.5c0.3-0.3,0.5-0.5,0.5-0.6l0.4,0.2c0.1,0.1,0.2,0.1,0.4,0.1c0.1,0.1,0.3,0.1,0.6,0
		c0.3,0,0.5,0,0.6,0c0.1,0.1,0.2,0.3,0.4,0.4c0.2,0.2,0.4,0.3,0.5,0.4V62c0.1,0,0.3,0,0.7,0.1c0.3,0.1,0.5,0.1,0.7,0
		c0.1,0,0.2,0,0.4-0.1c0.2-0.1,0.3-0.2,0.4-0.2c0.1-0.1,0.1-0.2,0.1-0.6c0-0.3,0.1-0.5,0.1-0.6c0-0.1,0.1-0.1,0.2-0.2
		c0.1-0.1,0.2-0.1,0.3-0.1c0.1-0.1,0.2-0.1,0.4-0.3c0.2-0.1,0.3-0.2,0.4-0.2c0.1-0.1,0.4-0.4,1-0.9c0.6-0.5,1-0.8,1.2-1
		c0.1-0.1,0.3-0.3,0.4-0.4s0.3-0.3,0.4-0.3c0.1-0.1,0.2-0.5,0.4-1.1s0.3-1.1,0.4-1.2c0-0.1,0-0.4,0.1-0.9c0.1-0.5,0.2-0.8,0.2-0.9
		c0-0.1,0.1-0.2,0.3-0.5c0.2-0.3,0.3-0.5,0.4-0.6c0.1-0.1,0.1-0.1,0.2-0.3c0.1-0.1,0.2-0.2,0.2-0.2c0.1-0.1,0.2-0.1,0.4-0.2
		c0.2-0.1,0.3-0.1,0.4-0.1c0.1-0.1,0.2-0.3,0.4-0.5c0.2-0.2,0.3-0.3,0.3-0.4v-0.5v-0.5l-0.2-0.2c-0.1,0-0.1-0.1-0.1-0.2
		c0-0.1,0-0.1-0.1-0.1l-0.3,0.3c-0.1,0.1-0.1,0.1-0.1,0.2c-0.1,0-0.1,0.1-0.2,0.4c-0.1,0.2-0.2,0.4-0.2,0.4h-0.2h-0.2
		c-0.1-0.1-0.1-0.1-0.2-0.2c-0.1-0.1-0.1-0.2-0.3-0.3l-0.3-0.3c-0.1,0,0-0.1,0-0.4c0.1-0.2,0.2-0.4,0.2-0.4v-0.3v-0.1l-0.4-0.2
		l-0.4-0.2c0.1,0,0-0.1-0.2-0.3l-0.2-0.2c-0.1-0.1-0.3-0.4-0.4-0.9c-0.2-0.6-0.3-0.9-0.4-1c-0.1-0.1-0.3-0.2-0.4-0.5
		c-0.2-0.3-0.3-0.5-0.4-0.6c-0.1,0-0.1-0.1-0.2-0.3c-0.1-0.2-0.1-0.3-0.1-0.4c-0.1-0.1-0.3-0.4-0.6-0.8c-0.3-0.4-0.5-0.6-0.6-0.6
		c-0.1-0.1-0.1-0.3-0.2-0.5c-0.1-0.2-0.1-0.3-0.1-0.4c-0.1-0.2-0.1-0.7-0.2-1.5c-0.1-0.8-0.1-1.3-0.1-1.6l-0.4-0.3
		c-0.1,0.1-0.2,0.3-0.4,0.4c-0.2,0.2-0.4,0.3-0.5,0.4h-0.1h-0.2c-0.1-0.1-0.1-0.2-0.3-0.4c-0.1-0.1-0.2-0.3-0.2-0.4l-0.7,0.3
		c-0.1-0.1-0.3-0.4-0.6-0.9c-0.3-0.5-0.5-0.8-0.6-1c0-0.2-0.1-0.3-0.4-0.3c-0.1,0-0.3-0.1-0.6-0.2c-0.3-0.1-0.5-0.2-0.6-0.3
		c-0.1-0.1-0.1-0.4-0.3-0.9c-0.1-0.5-0.1-0.8-0.1-1c-0.1,0.1-0.4,0.3-0.8,0.4c-0.4,0.2-0.6,0.3-0.8,0.4h-0.2h-0.2
		c0.1-0.1,0.2-0.3,0.3-0.6c0.1-0.3,0.1-0.5,0.1-0.6c0-0.2-0.1-0.4-0.4-0.4c-0.1,0.1-0.1,0.1-0.2,0.2c-0.1,0.1-0.1,0.1-0.1,0.2
		c-0.1,0.1-0.1,0.2-0.3,0.4c-0.1,0.2-0.2,0.3-0.3,0.3l-0.1-0.1c-0.1-0.1-0.2-0.2-0.2-0.3c-0.1-0.1-0.1-0.2-0.2-0.4s-0.2-0.3-0.2-0.4
		c-0.1-0.1-0.1-0.2-0.1-0.4s0-0.4,0-0.4h-0.1c-0.1,0-0.1,0-0.1,0.1c-0.1,0.1-0.1,0.2-0.3,0.4c-0.1,0.2-0.2,0.3-0.3,0.4
		c0,0.2-0.1,0.4-0.4,0.4c-0.1,0-0.1,0-0.1-0.1c0-0.1-0.1-0.2-0.1-0.2c0-0.1,0-0.2,0-0.5c0-0.3,0-0.5,0-0.6c0-0.1-0.1-0.2-0.2-0.4
		c-0.1-0.2-0.2-0.3-0.3-0.4c0-0.1-0.1-0.2-0.2-0.5c-0.1-0.3-0.2-0.5-0.3-0.5h-0.4c-0.1,0-0.2,0-0.4,0.1c-0.2,0.1-0.3,0.1-0.4,0.1
		h-0.4c-0.1,0.1-0.2,0.3-0.3,0.7c-0.1,0.3-0.3,0.5-0.4,0.5l-0.3,0.1h-0.4c-0.1,0-0.1,0-0.2-0.1c-0.1,0-0.1,0-0.2-0.1
		c-0.1-0.1-0.2-0.2-0.2-0.3c0.1-0.1,0.2-0.4,0.4-0.8c0.1-0.4,0.3-0.6,0.4-0.8c0.1-0.1,0.1-0.2,0.2-0.5c0.1-0.3,0.1-0.5,0.1-0.5
		l0.4-0.4c0.1-0.1,0.1-0.3,0.2-0.4s0.1-0.3,0.1-0.4l0.1-0.2c0-0.1,0-0.1,0-0.1c0,0,0,0,0-0.1v-0.1c0-0.1-0.1-0.3-0.3-0.4
		s-0.3-0.3-0.4-0.3l-1.9,1.9v1.1c-0.1,0.1-0.4,0.4-0.8,0.8c-0.4,0.4-0.7,0.6-0.8,0.8c-0.1,0.1-0.2,0.1-0.4,0c-0.2,0-0.3,0-0.4,0
		c0,0.1-0.1,0.1-0.2,0.2c-0.1,0.1-0.2,0.1-0.2,0.2v1.1v1.1c0.1-0.1,0.3-0.1,0.5-0.2c0.2-0.1,0.3-0.1,0.3-0.2l0.2,0.1h0.1
		c0.1,0,0.1,0,0.1,0.1v0.2c-0.1,0.1-0.2,0.4-0.5,0.8c-0.3,0.4-0.5,0.6-0.6,0.7V35v0.1c0.1-0.1,0.3-0.1,0.6-0.2
		c0.3-0.1,0.5-0.1,0.6-0.1c0.1,0,0.1,0,0.3,0.1c0.1,0.1,0.2,0.2,0.2,0.2c0.1,0.1,0.1,0.2,0.1,0.5c0,0.3,0.1,0.5,0.1,0.6
		c0.1,0.2,0.2,0.5,0.3,0.8c0.1,0.4,0.1,0.6,0.1,0.8c0,0.1,0,0.1,0,0.3c0,0.1,0,0.2,0,0.4c0,0.1,0,0.1,0,0.2c0,0.1,0,0.1,0,0.2V39
		c0,0.2-0.1,0.3-0.4,0.3c-0.1,0.1-0.2,0.1-0.4,0.3c-0.2,0.1-0.3,0.2-0.4,0.2l-0.4,0.4v0.2v0.3c0,0.1,0.1,0.1,0.2,0.3
		c0.1,0.1,0.1,0.1,0.2,0.1c0.1,0,0.2,0,0.4-0.1c0.2-0.1,0.3-0.1,0.4-0.3c0.3-0.3,0.4-0.6,0.4-0.8c0.1,0.1,0.1,0.1,0.1,0.3
		s0,0.2,0,0.3c0,0.4,0,0.6-0.1,0.6c0,0.1-0.2,0.3-0.5,0.6c-0.4,0.3-0.6,0.5-0.6,0.6v0.6v0.8c0,0.1,0.1,0.1,0.2,0.2
		c0.1,0.1,0.2,0.2,0.2,0.2l0.1,0.2l-0.1,0.1c0,0.1-0.1,0.2-0.2,0.4c-0.1,0.1-0.2,0.2-0.3,0.2c-0.1,0-0.2-0.1-0.4-0.2
		s-0.3-0.2-0.4-0.4v0.3v0.3c0.1,0.1,0.3,0.4,0.5,0.9c0.2,0.5,0.3,0.9,0.3,1c0.1,0.1,0.1,0.3,0,0.7c0,0.4,0,0.7,0,0.8l0.2,0.2
		c0.1,0.1,0.2,0.2,0.3,0.2c0.1,0,0.3,0,0.4,0.1c0.2,0.1,0.3,0.2,0.3,0.2V49v0.2c0,0.1,0,0.1,0.1,0.1c-0.1,0.1-0.1,0.1-0.1,0.2v0.2
		c0,0.1-0.1,0.4-0.4,0.8c-0.2,0.4-0.4,0.7-0.4,0.8c0,0.1,0.1,0.2,0.3,0.5c0.2,0.3,0.3,0.5,0.4,0.5v5.3c-0.1,0.1-0.1,0.2-0.3,0.4
		c-0.1,0.2-0.2,0.3-0.2,0.4l0.2,0.5c0,0.1,0.1,0.2,0.2,0.4c0.1,0.1,0.1,0.1,0.1,0.2c0.1,0.2,0.1,0.5,0.3,0.8
		c0.1,0.4,0.2,0.6,0.2,0.7v0.4v0.4c0,0.1,0,0.1-0.1,0.1c-0.1,0-0.1,0.1-0.2,0.2l-0.2,0.4v1.8V65.5z M132.4,26.5
		c-0.2,0-0.4,0.1-0.4,0.4c0,0.2,0.1,0.4,0.4,0.4c0.2,0,0.3-0.1,0.3-0.4C132.7,26.7,132.6,26.5,132.4,26.5z M132.8,52.7h0.4v-0.4
		L132.8,52.7z M133.9,19.6c-0.2,0-0.4,0.1-0.4,0.4c0,0.3,0.1,0.4,0.4,0.4c0.2,0,0.4-0.1,0.4-0.4C134.3,19.8,134.1,19.6,133.9,19.6z
		 M134.3,20c-0.2,0-0.4,0.1-0.4,0.4c0,0.2,0.1,0.4,0.4,0.4c0.1,0,0.2-0.1,0.2-0.4C134.5,20.1,134.5,20,134.3,20z M135.1,73.5h0.4
		v-0.4L135.1,73.5z M138.4,21.5c0,0.1-0.1,0.2-0.3,0.4c-0.2,0.2-0.3,0.3-0.4,0.4v0.3v0.1c0.1-0.1,0.3-0.2,0.4-0.4
		c0.2-0.2,0.3-0.3,0.3-0.4l0.1-0.2L138.4,21.5L138.4,21.5z M138.9,27.6v-0.4h-0.4L138.9,27.6z M138.9,65.5c-0.2,0-0.4,0.1-0.4,0.4
		c0,0.3,0.1,0.4,0.4,0.4c0.2,0,0.4-0.1,0.4-0.4C139.2,65.7,139.1,65.5,138.9,65.5z M139.6,28.7c-0.1,0.1-0.1,0.1-0.1,0.2
		c0,0.1-0.1,0.2-0.1,0.2c0,0.1,0,0.2-0.1,0.4c-0.1,0.2-0.1,0.3-0.1,0.4h0.4V28.7z M139.6,25.7h0.4v-0.4L139.6,25.7z M141.9,24.2
		c-0.2-0.1-0.3,0-0.3,0.2s0.1,0.3,0.3,0.3c0.1-0.1,0.2-0.1,0.2-0.3C142.1,24.2,142.1,24.2,141.9,24.2z M142.3,27.2
		c0.1,0.1,0.1,0.3,0.2,0.6c0.1,0.3,0.1,0.5,0.2,0.6l0.2,0.1c0.1,0,0.1,0,0.2-0.1c0.1-0.1,0.1-0.3,0.2-0.6c0.1-0.3,0.2-0.5,0.2-0.5
		c0-0.1,0.1-0.3,0.3-0.7c0.2-0.3,0.3-0.5,0.4-0.5l0.1-0.2c0-0.1,0-0.1-0.1-0.2c-0.2-0.3-0.3-0.4-0.4-0.4h-0.3h-0.1
		c-0.1,0.1-0.2,0.2-0.4,0.4c-0.2,0.2-0.3,0.3-0.4,0.4c-0.1,0-0.1,0.1-0.2,0.3c-0.1,0.2-0.1,0.3-0.2,0.4v0.3V27.2z M143.4,30.3
		c0,0.1,0,0.2,0.1,0.3c0,0.1,0.1,0.3,0.3,0.6s0.3,0.5,0.4,0.6c0-0.1,0-0.3,0-0.6c0-0.3,0-0.5,0-0.6s0-0.3,0-0.6c0-0.3,0-0.5,0-0.5
		c0-0.2-0.1-0.4-0.4-0.4c-0.2,0-0.4,0.1-0.4,0.4c0,0.1,0,0.1,0,0.1c0,0,0,0.1,0,0.1V30V30.3z M144.2,23c-0.1,0-0.1,0.1-0.2,0.2
		c-0.1,0.1-0.1,0.2-0.2,0.3h0.2h0.2c0.1-0.1,0.1-0.1,0.2-0.2c0.1-0.1,0.1-0.2,0.1-0.2h-0.1H144.2z M144.2,64.4
		c-0.2,0-0.3,0.1-0.3,0.4c0,0.3,0.1,0.4,0.3,0.4s0.3-0.1,0.3-0.4C144.4,64.5,144.3,64.4,144.2,64.4z M144.2,68.2h0.4v-0.8h-0.4V68.2
		z M144.9,32.8C144.9,32.9,144.9,32.9,144.9,32.8c0.1,0.2,0.3,0.4,0.4,0.7c0.2,0.3,0.3,0.4,0.4,0.4c0,0.1,0,0.1,0.1,0.1h0.2
		c0.1,0,0.1,0,0.1-0.1c0.1-0.1,0.1-0.3,0.3-0.7c0.1-0.4,0.2-0.6,0.2-0.8c0-0.1,0-0.3,0.1-0.6c0.1-0.3,0.2-0.5,0.2-0.6h-0.2h-0.2
		c0,0.1-0.1,0.1-0.2,0.3c-0.1,0.1-0.2,0.2-0.3,0.2l-0.4,0.2c-0.1,0.1-0.2,0.1-0.3,0.2c-0.1,0-0.1,0.1-0.3,0.2
		c-0.1,0.1-0.2,0.2-0.2,0.3l-0.1,0.1V32.8z M148.7,36.6l0.4-0.4h-0.4V36.6z M149.4,34c0,0.1,0,0.4,0,0.8c0,0.4,0.1,0.7,0.1,0.8
		c0,0.1,0,0.1,0.1,0.3c0.1,0.1,0.2,0.2,0.2,0.2c0.1,0,0.1-0.1,0.2-0.2c0.1-0.1,0.1-0.2,0.2-0.3c0.2-0.4,0.4-0.6,0.4-0.8
		c0-0.1-0.1-0.2-0.3-0.4c-0.2-0.2-0.3-0.3-0.4-0.4H149.4z M149.9,65.2c-0.2,0-0.3,0.1-0.3,0.4c0,0.2,0.1,0.4,0.3,0.4
		s0.3-0.1,0.3-0.4C150.2,65.3,150.1,65.2,149.9,65.2z M151.8,40.1c-0.1,0.1-0.3,0.2-0.4,0.4s-0.3,0.3-0.3,0.4
		c-0.1,0.1-0.1,0.3-0.2,0.5c-0.1,0.2-0.1,0.3-0.1,0.4c0.1,0,0.3,0,0.5,0c0.2,0,0.4,0,0.4,0c0.1-0.1,0.1-0.1,0.2-0.2
		c0.1-0.1,0.1-0.2,0.2-0.2v-0.4v-0.4c-0.1-0.1-0.1-0.1-0.2-0.2C151.9,40.2,151.8,40.1,151.8,40.1z M152.6,28.7
		c-0.1,0-0.2,0.1-0.2,0.2c0,0.1,0.1,0.2,0.2,0.2C152.7,29,152.7,28.8,152.6,28.7z M154.1,31.3c-0.1,0.1-0.1,0.1-0.2,0.2
		c-0.1,0.1-0.1,0.2-0.1,0.2c-0.1,0.1-0.1,0.3-0.1,0.4c0,0.2,0,0.3,0,0.4h0.5V31.3z M154.5,42.1c-0.2,0-0.4,0.1-0.4,0.3
		c0,0.2,0.1,0.3,0.4,0.3c0.1,0,0.2-0.1,0.2-0.3C154.7,42.2,154.6,42.1,154.5,42.1z M154.5,53.8c-0.2,0-0.3,0.1-0.3,0.2
		c0,0.1,0.1,0.2,0.3,0.2C154.8,53.9,154.8,53.8,154.5,53.8z M156,41.2h0.4v-0.4H156V41.2z"/>
	<path class="st5" d="M169.1,71.6c0-0.3,0-0.9,0.1-1.8c0.1-0.9,0.2-1.5,0.2-1.8c0.1,0.1,0.3,0.1,0.6,0.1c0.3,0,0.5,0,0.6-0.1
		l0.3-0.7c0.1-0.1,0.3-0.3,0.7-0.7c0.3-0.3,0.7-0.7,1-1s0.7-0.7,1-1c0.3-0.3,0.5-0.5,0.6-0.7c0,0.1,0.1,0.1,0.2,0.2
		c0.1,0.1,0.2,0.2,0.2,0.2c0,0.1,0.1,0.2,0.2,0.5c0.1,0.3,0.2,0.4,0.3,0.4c0,0.1,0,0.1,0.1,0.1h0.2c0.1,0,0.2,0,0.3,0
		c0.1,0,0.1,0,0.2,0c0.1,0,0.2,0,0.3-0.1c0.1-0.1,0.3-0.1,0.4-0.1l0.7-0.7c0.1,0,0.1,0,0.2,0.1c0.1,0.1,0.2,0.2,0.2,0.2
		c0.1,0.1,0.1,0.1,0.2,0.1h0.3h0.3c0.1,0,0.1,0,0.3-0.1c0.1,0,0.3-0.1,0.6-0.2l0.5-0.2h0.4h0.3c0.1,0,0.2,0.1,0.6,0.3
		c0.3,0.2,0.5,0.3,0.6,0.4h0.5h0.5l0.4-0.4c0.1-0.1,0.3-0.1,0.7,0c0.4,0.1,0.7,0.1,0.8,0c0.1-0.1,0.2-0.2,0.3-0.4
		c0.1-0.1,0.1-0.3,0-0.4h4c0.1,0,0.1-0.1,0.2-0.3c0.1-0.2,0.1-0.3,0.1-0.4l-0.2-0.2l-0.2-0.2c0-0.1,0-0.2-0.1-0.5
		c-0.1-0.3-0.2-0.5-0.2-0.6c0-0.1-0.1-0.4-0.2-0.8c-0.1-0.4-0.2-0.6-0.2-0.8c0-0.1,0-0.2-0.1-0.4c-0.1-0.2-0.2-0.4-0.3-0.7
		c-0.1-0.2-0.2-0.5-0.2-0.7c-0.1-0.2-0.1-0.4-0.1-0.4c0-0.1,0-0.1,0-0.3c0-0.1,0-0.2,0-0.4V57c0-0.1,0-0.2,0.1-0.4
		c0-0.1,0-0.3,0.1-0.6c0.1-0.3,0.1-0.5,0.2-0.6c0.2,0,0.3,0,0.4-0.1l0.4-0.2c0.1-0.1,0-0.3,0-0.6c-0.1-0.3-0.1-0.5-0.1-0.6H188
		l-0.4,0.2l-0.4,0.2v-3.3c0-0.1-0.1-0.4-0.2-0.9c-0.1-0.5-0.2-0.8-0.2-0.9v-1.8c0-0.1-0.1-0.2-0.2-0.5c-0.1-0.3-0.2-0.5-0.2-0.5
		c0.1-0.1,0.2-0.3,0.4-0.6c0.2-0.3,0.3-0.5,0.4-0.5v-0.5v-0.5l-0.8,0.7l-0.2-0.2c-0.1-0.1-0.1-0.1-0.1-0.2c-0.1-0.1-0.1-0.2,0-0.5
		c0-0.3,0-0.5,0-0.6c-0.1-0.1-0.1-0.5-0.2-1.3c-0.1-0.7-0.1-1.2-0.1-1.3v-0.2v-0.1c0-0.1,0.1-0.2,0.2-0.4c0.1-0.1,0.1-0.2,0.2-0.3
		c0-0.1,0-0.4,0-0.8c0-0.4,0-0.6,0-0.7c0-0.1,0.1-0.3,0.2-0.8c0.1-0.4,0.3-0.8,0.4-1.1c0-0.1,0.1-0.2,0.2-0.4
		c0.1-0.2,0.2-0.3,0.2-0.4c-0.1-0.1-0.2-0.2-0.4-0.4s-0.3-0.3-0.4-0.4v-3.6c0.1,0,0.3,0,0.5,0.1c0.2,0.1,0.4,0.1,0.5,0.1h0.4h0.1
		l1.8-1.8v-0.2v-0.2l-0.2-0.2l-0.2-0.2c-0.1-0.1-0.1-0.4,0-0.8c0.1-0.4,0.1-0.6,0-0.8l-0.4-0.4l-0.2-0.1l-0.2,0.1
		c-0.1,0.1-0.3,0.2-0.4,0.4c-0.1,0.2-0.3,0.3-0.3,0.4c0,0.1,0,0.3-0.1,0.6c-0.1,0.3-0.2,0.5-0.3,0.6c0-0.1,0-0.2-0.1-0.4
		c-0.1-0.1-0.1-0.2-0.1-0.3c-0.1-0.1-0.1-0.1-0.2-0.2c-0.1-0.1-0.2-0.1-0.2-0.3l-0.4-0.2c-0.1-0.1-0.2-0.1-0.3-0.2h-0.2h-0.2
		c-0.1,0-0.2,0-0.5,0c-0.3,0-0.5,0.1-0.8,0.1c-0.3,0.1-0.6,0.1-0.8,0.1c-0.3,0-0.4,0-0.5,0c-0.1,0-0.3,0-0.7,0.1
		c-0.4,0.1-0.7,0.1-0.8,0.1c-0.1,0-0.3,0-0.6-0.1c-0.3-0.1-0.4-0.1-0.5-0.1l-0.4-0.7l-0.7,0.4v-1.4c-0.1,0.1-0.2,0.2-0.5,0.3
		c-0.3,0.1-0.5,0.1-0.6,0c0-0.1,0-0.2-0.1-0.4l-0.3-0.4c-0.2,0-0.3,0-0.4-0.1c-0.2-0.1-0.4-0.1-0.6-0.3h-0.1h-0.4
		c0,0.1-0.1,0.1-0.3,0.2C176.2,26,176,26,176,26c0-0.1,0-0.2-0.1-0.4s-0.2-0.3-0.2-0.3c-0.1-0.1-0.2-0.1-0.4-0.2
		c-0.2-0.1-0.3-0.2-0.3-0.2c-0.1,0-0.1,0-0.3-0.1c-0.1-0.1-0.2-0.2-0.2-0.2c0-0.1-0.1-0.2-0.2-0.3c-0.1-0.1-0.2-0.3-0.2-0.4
		c-0.1-0.1-0.3-0.3-0.5-0.6c-0.2-0.3-0.4-0.4-0.5-0.5c0-0.1,0.1-0.2,0.3-0.4c0.2-0.1,0.3-0.3,0.4-0.4h0.2h0.2
		c0.1,0.1,0.3,0.3,0.5,0.4c0.2,0.1,0.3,0.3,0.3,0.4v0.6c0.1,0.1,0.4,0.3,0.7,0.5c0.4,0.2,0.6,0.3,0.7,0.3c0.2,0,0.3-0.1,0.3-0.4
		v-0.2v-0.3c0-0.1-0.1-0.4-0.4-0.9c-0.3-0.5-0.5-0.8-0.5-0.9v-0.2v-0.2c0-0.1,0-0.3,0.1-0.6c0.1-0.3,0.2-0.4,0.2-0.5
		c0-0.1,0.1-0.2,0.4-0.4c0.1-0.1,0.3-0.1,0.7-0.3c0.4-0.1,0.7-0.2,0.8-0.2c0.1-0.1,0.1-0.2,0.3-0.4l0.4-0.4c0.1,0,0.2,0.1,0.4,0.2
		c0.2,0.1,0.3,0.2,0.4,0.1l0.7-0.7c0.1-0.1,0.3-0.2,0.6-0.3c0.3-0.1,0.4-0.1,0.5-0.1c0.1,0.1,0.3,0.2,0.4,0.4
		c0.2,0.2,0.3,0.3,0.4,0.3h0.5h0.5c0.1,0,0.2-0.1,0.5-0.3c0.3-0.2,0.5-0.3,0.6-0.4l0.2-0.2l0.2-0.2h0.2h0.2c0.1,0.1,0.2,0.2,0.3,0.4
		c0.1,0.2,0.2,0.3,0.3,0.3c0.1,0,0.4-0.1,0.8-0.4c0.4-0.2,0.6-0.4,0.7-0.4h0.4h0.3c0.1,0,0.3,0.1,0.6,0.3c0.3,0.2,0.5,0.3,0.5,0.4
		l0.2,0.1c0.1,0,0.1,0,0.2-0.1c0.1-0.1,0.2-0.2,0.6-0.4c0.3-0.2,0.5-0.3,0.6-0.4h0.2h0.2c0.1,0.1,0.3,0.1,0.6,0.2
		c0.3,0.1,0.4,0.1,0.5,0.1c0.1,0.1,0.2,0.2,0.6,0.5c0.3,0.3,0.5,0.5,0.6,0.5l0.2,0.1l0.2-0.1l0.4-0.2c0.1-0.1,0.2-0.1,0.3-0.2
		c0.1,0,0.1,0,0.1,0c0,0,0.1,0,0.1,0c0-0.1,0-0.2,0.1-0.4c0.1-0.2,0.1-0.3,0.1-0.4l-0.2-0.2c-0.1,0-0.1,0-0.1,0c0,0,0,0-0.1,0
		s-0.1,0-0.1-0.1l-0.4-0.7c0-0.3,0.1-0.4,0.4-0.4c0.1,0.1,0.3,0.3,0.6,0.6c0.3,0.3,0.5,0.5,0.5,0.6c0.1,0.1,0.2,0.3,0.3,0.5
		c0.1,0.2,0.1,0.4,0.1,0.5c0.1-0.1,0.2-0.2,0.4-0.4c0.1-0.2,0.2-0.3,0.3-0.4c0.1-0.1,0.1-0.2,0.2-0.4c0.1-0.2,0.1-0.3,0.1-0.4h1.3
		h1.3c0.1,0,0.3,0.1,0.5,0.2c0.2,0.1,0.4,0.2,0.5,0.3c0.1,0.1,0.3,0.3,0.6,0.4c0.3,0.1,0.5,0.3,0.5,0.3v0.2v0.2
		c-0.1,0.2-0.1,0.5-0.3,0.8c-0.1,0.4-0.2,0.6-0.2,0.7c-0.1,0.1-0.2,0.2-0.4,0.3c-0.2,0.1-0.3,0.3-0.3,0.4v0.4v0.4
		c0.1-0.1,0.3-0.1,0.6-0.2c0.3-0.1,0.5-0.1,0.6-0.1c0.1-0.1,0.2-0.1,0.4-0.2c0.2-0.1,0.3-0.1,0.3-0.2l0.4,0.7
		c0.1-0.1,0.1-0.1,0.2-0.2c0.1-0.1,0.2-0.1,0.2-0.1V21v-0.4c-0.1,0-0.1-0.1-0.3-0.3c-0.1-0.2-0.2-0.3-0.2-0.4V19v-0.6
		c0.1-0.1,0.2-0.2,0.4-0.3c0.2-0.1,0.4-0.3,0.5-0.4h0.3c0.1,0,0.3,0,0.4-0.1c0.2-0.1,0.3-0.2,0.4-0.3c0-0.1,0-0.2,0.1-0.4
		c0.1-0.2,0.1-0.3,0.1-0.4c0.2,0,0.4-0.1,0.4-0.4l0.4,0.4c0.1,0.1,0.3,0.4,0.4,0.8c0.2,0.4,0.3,0.6,0.4,0.8c0.1,0.1,0.1,0.1,0.2,0.2
		c0.1,0.1,0.1,0.1,0.2,0.1c0.1,0.1,0.1,0.3,0.2,0.5c0.1,0.2,0.1,0.4,0.1,0.5v0.9V21c0,0.1-0.1,0.2-0.4,0.3c-0.3,0.1-0.5,0.3-0.6,0.4
		h-0.2h-0.3c-0.1,0.1-0.2,0.3-0.4,0.4s-0.3,0.3-0.4,0.4v0.3v0.4c0.1,0.1,0.1,0.3,0.2,0.8c0.1,0.5,0.1,0.8,0.1,0.9v0.8v0.7
		c0,0.2-0.1,0.4-0.4,0.4l-0.3,0.1h-0.3c-0.1,0-0.1,0-0.2-0.1l-0.4-0.4c-0.1-0.1-0.2-0.1-0.5-0.3c-0.3-0.1-0.5-0.2-0.6-0.2h-1.4
		c-0.1,0-0.2-0.1-0.4-0.3c-0.2-0.2-0.3-0.3-0.4-0.3c-0.1,0-0.3,0.1-0.7,0.2c-0.4,0.1-0.7,0.3-0.8,0.4c-0.1,0.1-0.2,0.3-0.4,0.4
		c-0.2,0.1-0.3,0.3-0.4,0.4l-0.7-0.8l-0.4,0.4h-2.6c-0.1,0-0.3,0.2-0.4,0.5c-0.1,0.4-0.3,0.6-0.4,0.9v0.7v0.8c0,0.1,0.1,0.2,0.2,0.5
		c0.1,0.3,0.2,0.4,0.2,0.5c0.1,0.1,0.2,0.3,0.4,0.6c0.2,0.3,0.4,0.5,0.5,0.6l0.3,0.3c0.2,0.2,0.4,0.4,0.4,0.4V33
		c0.1,0.1,0.2,0.4,0.4,0.7s0.3,0.6,0.4,0.7V40c-0.1,0.1-0.2,0.3-0.4,0.7c-0.2,0.3-0.3,0.5-0.4,0.7c0,0.1,0,0.4-0.1,0.8
		c-0.1,0.4-0.2,0.6-0.2,0.8c0,0.1,0,0.3,0,0.6c0,0.3-0.1,0.6-0.1,1c0,0.4-0.1,0.7-0.1,1c0,0.3,0,0.6,0,0.8c-0.1,0-0.1,0-0.3,0.1
		c-0.1,0.1-0.2,0.2-0.2,0.2l-0.1,0.2l0.1,0.2c0-0.1,0.1-0.1,0.3-0.2c0.2-0.1,0.3-0.1,0.4-0.1c0.2,0,0.4,0.1,0.4,0.4V47v0.2
		c0,0.1-0.1,0.4-0.2,1c-0.1,0.5-0.2,0.9-0.2,1v1.2v0.9c0.1,0.1,0.2,0.3,0.4,0.6c0.2,0.3,0.4,0.4,0.4,0.5c0,0.1-0.1,0.3-0.3,0.5
		c-0.2,0.2-0.4,0.3-0.5,0.3v0.2v0.2c0.1,0.1,0.3,0.2,0.6,0.4s0.4,0.3,0.5,0.4c0.1,0.1,0.1,0.4,0.2,0.9c0.1,0.6,0.1,1,0.1,1.3v0.6
		v0.5c0,0.1,0,0.4-0.1,0.9c-0.1,0.5-0.2,0.8-0.2,0.9l-0.3,0.1h-0.3c-0.1,0-0.1,0-0.2-0.1l-0.6-0.3l-0.1-0.1c-0.1,0-0.1,0-0.2-0.1
		l-0.2,0.2c-0.1,0.1-0.2,0.3-0.3,0.5c-0.1,0.2-0.1,0.4-0.1,0.4c0.1,0.1,0.2,0.1,0.4,0.2c0.2,0.1,0.4,0.1,0.4,0.2
		c0.1,0.1,0.2,0.3,0.4,0.6c0.2,0.3,0.3,0.5,0.3,0.6v0.7l2.2,2.2c0.1,0,0.2-0.1,0.4-0.4c0.1,0,0.1-0.2,0.2-0.5
		c0.1-0.3,0.1-0.5,0.1-0.6l0.2-0.1c0.1,0,0.1,0,0.2,0.1c0.1,0,0.3,0,0.4,0.1c0.2,0.1,0.3,0.2,0.4,0.2h0.4l1.1,1.5
		c0,0.1,0,0.1,0.1,0.1h0.2l0.2-0.1c0-0.1,0-0.1,0.1-0.1l0.2-0.1l0.4-0.2h0.8c0.1,0,0.2-0.1,0.5-0.2c0.3-0.1,0.5-0.2,0.5-0.3h0.3h0.2
		c0,0.1,0,0.2,0.1,0.3l0.2,0.2h0.4h0.4c0.1,0,0.3-0.1,0.4-0.2c0.2-0.1,0.3-0.2,0.4-0.3h0.2h0.2c0.1,0.1,0.1,0.3,0.2,0.4
		c0.1,0.1,0.1,0.3,0.1,0.4c0,0.2,0.1,0.4,0.4,0.4h0.6h0.5c0.1-0.1,0.1-0.1,0.2-0.2c0.1-0.1,0.1-0.1,0.1-0.2c0-0.1,0-0.4,0.1-0.8
		c0.1-0.4,0.1-0.6,0.1-0.8c0.1,0.1,0.2,0.1,0.3,0.2l0.3,0.3c0.1,0.1,0.1,0.3,0.2,0.4c0.1,0.1,0.1,0.2,0.1,0.4s0,0.2,0.1,0.3
		c0.1,0.1,0.3,0.3,0.4,0.6s0.3,0.5,0.3,0.5c0.1,0.1,0.4,0.1,0.8,0.2c0.4,0.1,0.7,0.1,0.9,0.1c0,0.3-0.1,0.5-0.3,0.7
		c0,0.1-0.1,0.1-0.2,0.3c-0.1,0.1-0.1,0.1-0.1,0.2c-0.1,0-0.2-0.1-0.4-0.2c-0.2-0.1-0.3-0.2-0.4-0.2c-0.1,0.1-0.3,0.2-0.6,0.4
		c-0.3,0.2-0.4,0.3-0.4,0.4c-0.1,0.1,0,0.3,0.1,0.4c0.1,0.2,0.2,0.3,0.3,0.4l0.1,0.2c0,0.1,0,0.1-0.1,0.2c-0.1,0.1-0.2,0.2-0.4,0.4
		c-0.2,0.2-0.4,0.3-0.4,0.4c-0.1,0.1-0.1,0.2-0.2,0.4c-0.1,0.2-0.1,0.3-0.2,0.4c-0.1,0.1-0.1,0.2-0.1,0.4c0,0.2,0,0.3,0,0.4h-1.8
		v-0.2c0-0.1,0-0.1,0.1-0.2l0.4-0.4V70v-0.3c-0.1,0-0.1,0-0.2-0.1c-0.1-0.1-0.1-0.2-0.2-0.2v-2.9l-0.4,0.4c0,0.1-0.1,0.5-0.3,1.1
		c-0.2,0.6-0.3,1-0.4,1.1c-0.1,0.1-0.2,0.2-0.5,0.4c-0.3,0.2-0.5,0.3-0.6,0.3l-0.2,0.2c-0.1,0.1-0.1,0.1-0.1,0.2
		c0,0.1,0,0.1-0.1,0.1c-0.1,0.1-0.1,0.2-0.2,0.4c-0.1,0.2-0.1,0.3-0.1,0.4l-2.3-1.1c0,0.1,0,0.3-0.1,0.4c-0.1,0.2-0.1,0.3-0.2,0.4
		c-0.1,0.1-0.1,0.1-0.2,0.1c-0.1,0-0.1,0-0.3,0.1l-0.4,0.2l-0.1,0.2l0.1,0.2c0.1,0.1,0.3,0.3,0.6,0.4c0.3,0.1,0.4,0.3,0.5,0.3
		c0.1,0,0.4,0,0.8,0c0.4,0,0.6,0,0.7,0c0.1,0,0.2,0.2,0.3,0.5c0.1,0.3,0.1,0.5,0.1,0.7c0.1,0.1,0.2,0.1,0.6,0.2
		c0.3,0.1,0.5,0.1,0.5,0.2l0.2,0.2c0.1,0.1,0.1,0.1,0.2,0.1c0,0.2-0.1,0.3-0.4,0.4h-0.8h-0.6c-0.1-0.1-0.1-0.3-0.2-0.6
		c-0.1-0.3-0.1-0.4-0.1-0.5c-0.1-0.1-0.3-0.2-0.4-0.3c-0.2-0.1-0.3-0.1-0.4-0.1h-0.4c-0.1,0-0.2,0-0.4,0.1v1.5h-1
		c-0.5,0-0.9-0.1-1.4-0.2c-0.1,0-0.2-0.1-0.5-0.2c-0.3-0.1-0.5-0.2-0.6-0.3h-0.4h-0.4c-0.1,0.1-0.2,0.1-0.4,0.2
		c-0.2,0.1-0.3,0.1-0.4,0.3v-1c-0.1,0-0.1,0-0.2-0.1H196c-0.1,0.1-0.1,0.2-0.2,0.5c-0.1,0.3-0.1,0.5-0.1,0.6
		c-0.1,0.1-0.1,0.1-0.2,0.1c-0.1,0.1-0.1,0.1-0.3,0.1c-0.1,0-0.1,0-0.2-0.1c-0.1,0-0.1,0-0.2-0.1l-0.2-0.4c-0.1-0.1-0.1-0.2-0.1-0.4
		h-0.1c-0.1,0-0.1,0-0.2-0.1l-0.2,0.1c-0.1,0-0.1,0-0.2,0.1c-0.1,0.1-0.2,0.1-0.2,0.1l-0.1,0.1h-0.2c-0.1,0-0.1,0-0.1-0.1
		c-0.1,0-0.4-0.1-0.9-0.4c-0.5-0.3-0.8-0.5-0.9-0.5h-0.3h-0.1l-0.2,0.5c-0.1,0.2-0.1,0.3-0.2,0.4c-0.1,0.1-0.1,0.1-0.2,0.2
		c-0.1,0.1-0.1,0.2-0.2,0.2c-0.1-0.2-0.1-0.5-0.2-1.1c-0.1-0.6-0.1-0.9-0.2-1.1c-0.1-0.2-0.2-0.4-0.3-0.6c-0.1-0.1-0.1-0.3-0.2-0.4
		h-0.7c-0.1,0-0.2-0.1-0.5-0.2c-0.3-0.1-0.5-0.2-0.6-0.2c-0.1,0.1-0.2,0.1-0.3,0.2l-0.2,0.2c0.3,0,0.4,0.1,0.4,0.4
		c0.1,0,0.2,0,0.4,0.1c0.2,0.1,0.3,0.2,0.3,0.2l0.2,0.4l0.2,0.4c0.1,0.1,0.1,0.1,0.1,0.2c-0.1,0-0.3,0-0.4,0.1
		c-0.2,0.1-0.3,0.1-0.4,0.2c-0.1,0-0.2,0.1-0.4,0.3s-0.3,0.3-0.4,0.4c-0.2,0.2-0.3,0.4-0.3,0.7h-1.7H184c-0.2-0.1-0.7-0.2-1.3-0.3
		c-0.6-0.1-1.1-0.3-1.2-0.4l-0.2,0.2c-0.1,0.1-0.1,0.1-0.3,0.1c-0.1,0.1-0.1,0.2-0.2,0.4c-0.1,0.2-0.1,0.4-0.2,0.4l-0.4,0.4h-2.5
		c-0.1-0.1-0.1-0.2-0.2-0.5c-0.1-0.3-0.1-0.5-0.1-0.6c-0.1,0-0.1,0-0.2-0.1c-0.1-0.1-0.2-0.1-0.2-0.1l-0.4,0.3c0,0.1,0,0.3-0.1,0.6
		c-0.1,0.3-0.1,0.5-0.2,0.5l-0.7-0.7c-0.1,0.1-0.2,0.2-0.4,0.4c-0.2,0.1-0.3,0.2-0.4,0.3c-0.1,0.1-0.2,0.2-0.4,0.3
		c-0.2,0.1-0.3,0.1-0.4,0.1c-0.1,0-0.1,0-0.3,0c-0.1,0-0.2,0-0.4,0c-0.1,0-0.3,0-0.4,0c-0.2,0-0.3,0-0.4,0c-0.1,0-0.4,0-0.8-0.1
		c-0.4-0.1-0.6-0.2-0.8-0.2c0-0.1-0.1-0.2-0.4-0.3c-0.3-0.1-0.5-0.3-0.7-0.4c0-0.1,0-0.2-0.1-0.3c-0.1-0.1-0.2-0.1-0.2-0.2
		c-0.1-0.1-0.2-0.4-0.3-0.8c-0.1-0.4-0.3-0.8-0.3-0.9v-0.2V71.6z M171.2,70.2c-0.2,0-0.3,0.1-0.3,0.4c0,0.2,0.1,0.4,0.3,0.4
		c0.2,0,0.3-0.1,0.3-0.4C171.5,70.3,171.4,70.2,171.2,70.2z M176.3,68.4c-0.1-0.1-0.2,0-0.2,0.2s0.1,0.2,0.2,0.2
		C176.6,68.6,176.6,68.5,176.3,68.4z M178.5,21h0.5v-0.4L178.5,21z M179,74.2c-0.3,0-0.4,0.1-0.4,0.4c0,0.2,0.1,0.4,0.4,0.4
		c0.1,0,0.2-0.1,0.2-0.4C179.2,74.3,179.1,74.2,179,74.2z M180.7,65.9c-0.1-0.1-0.2-0.1-0.2,0c0,0.1,0.1,0.2,0.2,0.2
		c0.1,0,0.2,0,0.2-0.1C180.8,65.9,180.8,65.9,180.7,65.9z M181.8,70.9c0.1-0.1,0-0.1-0.1-0.1c-0.1,0-0.3,0-0.4,0s-0.3,0-0.4,0
		c-0.1,0-0.2,0.1-0.2,0.1c0.1,0.1,0.3,0.2,0.6,0.2C181.6,71.1,181.8,71,181.8,70.9z M182.9,71.3h0.8l-0.4-0.4L182.9,71.3z
		 M184.4,65.9c-0.2,0-0.3,0.1-0.3,0.3c0,0.2,0.1,0.3,0.3,0.3s0.3-0.1,0.3-0.3C184.6,66,184.6,65.9,184.4,65.9z M185,18.8
		c-0.1,0-0.2,0.1-0.2,0.4c0,0.2,0.1,0.4,0.2,0.4c0.2,0,0.3-0.1,0.3-0.4C185.3,18.9,185.2,18.8,185,18.8z M185.3,65.3h0.5v-0.3h-0.5
		V65.3z M188,64.7c-0.1,0.1-0.3,0.2-0.6,0.3c-0.3,0.1-0.5,0.3-0.6,0.3c0,0.1,0,0.2-0.1,0.4c-0.1,0.2-0.1,0.3-0.3,0.4v0.3v0.1
		L188,64.7z M188,66.5h0.4l-0.4-0.4V66.5z M188.4,40.2c-0.2,0-0.3,0.1-0.3,0.4c0,0.2,0.1,0.4,0.3,0.4s0.3-0.1,0.3-0.4
		C188.6,40.4,188.5,40.2,188.4,40.2z M188.7,68.7c0-0.1-0.1-0.2-0.2-0.2c-0.1,0-0.2,0.1-0.2,0.2c0.1,0.1,0.1,0.2,0.2,0.2
		C188.7,68.9,188.7,68.8,188.7,68.7z M191.3,18.8c0.1-0.1-0.1-0.2-0.4-0.2s-0.4,0.1-0.4,0.2c0.1,0.1,0.2,0.2,0.4,0.2
		S191.2,18.9,191.3,18.8z M191.3,71.3c0.1,0.1,0.4,0.2,0.8,0.3c0.4,0.1,0.6,0.3,0.8,0.4c0.1,0.1,0.2,0.3,0.4,0.6
		c0.1,0.3,0.2,0.5,0.2,0.6l0.4-0.4v-0.1c0-0.1,0-0.1,0-0.1c0,0,0,0,0-0.1l-0.1-0.2c-0.1-0.2-0.2-0.4-0.3-0.7
		c-0.1-0.3-0.3-0.4-0.3-0.4c-0.1-0.1-0.2-0.1-0.4-0.1c-0.2,0-0.4,0-0.5,0h-0.4c-0.1,0-0.1,0-0.1,0c0,0-0.1,0-0.1,0H191.3z M192,26.8
		c-0.1,0.1-0.2,0.3-0.2,0.4h0.3c0.1,0,0.2,0,0.2,0c0,0,0.1,0,0.1,0l0.4-0.4v-0.4V26L192,26.8z M192.4,57.5c-0.1-0.1-0.2-0.1-0.2,0
		c0,0.1,0.1,0.2,0.2,0.2c0.1,0,0.2,0,0.2-0.1C192.6,57.5,192.5,57.5,192.4,57.5z M193.4,21c-0.1,0-0.2,0.1-0.2,0.4
		c0,0.2,0.1,0.4,0.2,0.4c0.2,0,0.3-0.1,0.3-0.4C193.7,21.1,193.6,21,193.4,21z M194.7,67.2C194.7,67.2,194.6,67.2,194.7,67.2
		c-0.1,0.1-0.2,0.1-0.4,0.2c-0.1,0.1-0.2,0.1-0.2,0.2h0.7v-0.4H194.7z M194.6,24.9c-0.1,0-0.2,0.1-0.2,0.2c0,0.1,0.1,0.2,0.2,0.2
		C194.9,25.3,194.9,25.1,194.6,24.9z M194.5,56.9C194.5,57,194.6,57,194.5,56.9c0.1,0.2,0.2,0.4,0.4,0.5h0.2h0.2l0.4-0.4v-0.4v-0.3
		c-0.2-0.2-0.5-0.4-0.8-0.4c-0.2,0-0.3,0.1-0.3,0.4c-0.1,0.1-0.1,0.1-0.1,0.2v0.2V56.9z M194.8,34.1c0,0.1,0,0.3,0,0.4
		c0,0.1,0,0.3,0,0.3c0,0.1,0.1,0.1,0.2,0.3l0.2,0.2v-1.1H194.8z M194.9,71.6l0.8-0.4l-0.4-0.4L194.9,71.6z M196.3,20.6L196,21
		c0,0.1,0,0.2,0,0.4c0,0.2,0,0.4,0,0.5l0.4-0.2c0.1-0.1,0.2-0.2,0.3-0.4c0.1-0.2,0.1-0.3,0.1-0.4l0.1-0.2v-0.2H196.3z M195.9,66.8
		c0,0.1,0,0.1,0,0.2c0,0.1,0,0.2,0,0.2l0.2,0.2c0.1,0.1,0.1,0.1,0.2,0.1c0.1,0,0.2,0,0.3-0.1l0.2-0.2c0.1-0.1,0.1-0.2,0.1-0.4H195.9
		z M199,20.6c0.1-0.1,0-0.2-0.2-0.2c-0.2,0-0.3,0.1-0.2,0.2C198.7,20.8,198.8,20.8,199,20.6z M198.5,73.1h0.4v-0.4h-0.4V73.1z
		 M199,18.8c-0.2,0-0.4,0.1-0.4,0.4c0,0.2,0.1,0.4,0.4,0.4c0.2,0,0.3-0.1,0.3-0.4C199.2,18.9,199.1,18.8,199,18.8z M199,23.4
		l0.4-0.3l-0.4-0.4V23.4z M199,71.3h0.4h0.4l0.4-0.4l-0.7-0.7L199,71.3z M199.7,20.3c-0.2,0-0.3,0.1-0.3,0.4c0,0.2,0.1,0.4,0.3,0.4
		s0.3-0.1,0.3-0.4C199.9,20.4,199.8,20.3,199.7,20.3z M200,19.1c-0.2,0-0.3,0.1-0.3,0.4c0,0.3,0.1,0.4,0.3,0.4s0.3-0.1,0.3-0.4
		C200.3,19.2,200.2,19.1,200,19.1z M202.1,22.5c-0.2,0-0.3,0.1-0.3,0.4c0,0.2,0.1,0.4,0.3,0.4c0.2,0,0.4-0.1,0.4-0.4
		C202.5,22.6,202.4,22.5,202.1,22.5z M203,25.7v-0.7v-0.7c0-0.1-0.1-0.1-0.2-0.2c-0.1-0.1-0.2-0.1-0.3-0.1l-0.4,0.4L203,25.7z
		 M204.4,67.1c-0.2,0-0.4,0.1-0.4,0.2c-0.1,0.1-0.3,0.2-0.4,0.4c-0.2,0.2-0.3,0.3-0.4,0.3c-0.1,0.1-0.1,0.4-0.2,0.9
		c-0.1,0.5-0.1,0.8-0.1,0.9h0.6c0.1-0.3,0.1-0.6,0.3-0.8c0.1-0.2,0.2-0.5,0.3-0.8c0.1-0.3,0.1-0.5,0.2-0.7c0-0.1,0-0.1,0-0.2
		C204.4,67.2,204.4,67.2,204.4,67.1z M203.6,19.5c0.1,0.3,0.3,0.4,0.4,0.4c0.1-0.1,0.1-0.1,0.3-0.2c0.2-0.1,0.4-0.2,0.4-0.3v-0.3
		v-0.1c0-0.2-0.1-0.4-0.4-0.4h-0.2h-0.1c-0.3,0-0.4,0.1-0.4,0.4v0.1V19.5z M205.1,66.5c-0.1-0.1-0.2,0-0.2,0.2
		c0,0.2,0.1,0.2,0.2,0.2c0.1,0,0.2,0,0.2-0.1C205.2,66.6,205.2,66.6,205.1,66.5z M205.5,20.4h0.2c0.1,0,0.1,0,0.2-0.1l0.4-0.4h-0.7
		V20.4z"/>
	<path class="st5" d="M222.7,77.7c-0.2-0.5-0.4-1.1-0.4-1.7c0-0.5,0.1-0.8,0.4-0.9c0.3-0.1,0.4-0.4,0.4-0.8c0-0.4-0.1-0.8-0.3-1
		c-0.2-0.3-0.4-0.6-0.6-0.9h0.1c0.1,0,0.1,0,0.1,0c0,0,0,0,0.1,0h0.3c0.5,0,0.7,0.1,0.7,0.4c0,0.3,0.1,0.4,0.4,0.4h0.3
		c-0.1-0.8,0-1.6,0.2-2.2c0.2-0.6,0.4-1.3,0.7-1.9c0.3-0.6,0.5-1.3,0.8-1.9c0.2-0.6,0.4-1.4,0.4-2.2c0.2,0,0.4,0.1,0.4,0.3
		c0.1,0.2,0.2,0.3,0.5,0.3c0.8,0,1.7-0.1,2.6-0.4c0.9-0.2,1.7-0.5,2.5-0.8l0.7,2.7c0.1-0.1,0.2-0.2,0.4-0.4c0.1-0.2,0.2-0.5,0.3-0.8
		c0.1-0.3,0.1-0.6,0.2-0.8c0-0.3,0-0.5,0-0.6c0.6-0.5,1.1-0.9,1.6-1.2c0.5-0.3,1-0.5,1.7-0.5c0.1,0,0.2,0,0.3,0c0.1,0,0.2,0,0.3,0
		l-0.8,0.8c0.1,0.3,0.2,0.6,0.4,1c0.1,0.4,0.2,0.6,0.4,0.6c0.4,0,0.7-0.2,1-0.5c0.2-0.3,0.4-0.7,0.6-1.1c0.2-0.4,0.4-0.8,0.5-1.3
		c0.2-0.4,0.4-0.8,0.6-1c0.2-0.2,0.5-0.4,0.8-0.5c0.3-0.1,0.6-0.2,0.8-0.3c0.2-0.1,0.4-0.2,0.6-0.4c0.2-0.1,0.3-0.4,0.3-0.8
		c0-0.5-0.2-0.9-0.7-1.2c-0.4-0.3-0.9-0.5-1.4-0.5c-0.3,0-0.5,0.1-0.6,0.2c-0.1,0.1-0.2,0.2-0.4,0.2h-0.2c-0.1-0.8-0.2-1.5-0.4-2.3
		c-0.1-0.8-0.3-1.5-0.4-2.3h-0.2h-0.2c-0.1,0-0.3,0-0.4,0.1c-0.2,0.1-0.3,0.2-0.4,0.2h-0.2h-0.2c0-0.2,0-0.6-0.1-1.2
		c-0.1-0.6-0.2-1-0.3-1.1c-0.3-0.7-0.8-1-1.4-0.8c-0.6,0.2-1.2,0.3-1.7,0.3v0.6c-0.8,0-1.5-0.3-2.2-1c-0.7-0.7-1.1-1.4-1.2-2.2
		c-0.1,0.1-0.2,0.1-0.4,0.3c-0.2,0.1-0.3,0.2-0.4,0.2l-0.2-0.2c-0.1-0.1-0.2-0.2-0.2-0.3c-0.3-0.5-0.5-0.9-0.5-1.2
		c0-0.4,0-0.8,0.1-1.4c-0.4,0.2-0.7,0.4-0.9,0.6c-0.3,0.1-0.6,0.2-1,0.2c-0.6,0-0.9-0.3-0.8-1c0.1-0.6,0.2-1.2,0.2-1.6
		c-0.2,0-0.5-0.1-1-0.2s-0.7,0.1-0.7,0.8c0,0.1,0.1,0.3,0.4,0.6c0.3,0.3,0.4,0.5,0.4,0.6c0,0.1-0.1,0.2-0.3,0.5
		c-0.2,0.3-0.4,0.5-0.5,0.6h-0.2h-0.2c-0.1-0.1-0.2-0.3-0.3-0.6c-0.1-0.3-0.1-0.5-0.2-0.5c-0.1-0.1-0.2-0.1-0.5-0.2
		c-0.3-0.1-0.5-0.1-0.6-0.2c-0.8-0.5-1.3-1.1-1.7-1.8c-0.4-0.7-0.6-1.4-0.7-2.1c-0.1-0.7-0.1-1.3-0.1-1.8c0-0.5,0-0.8,0-0.8
		l-1.1,0.2l-0.2,0.1c-0.1,0.1-0.1,0.2-0.2,0.4c-0.1,0.2-0.2,0.3-0.2,0.4c0,0.1,0,0.1-0.1,0.1c-0.1,0.1-0.1,0.1-0.2,0.1
		c0-0.8-0.1-1.3-0.4-1.7c-0.2-0.4-0.5-0.7-0.9-1.1c-0.4-0.3-0.7-0.6-1.1-1c-0.4-0.3-0.6-0.8-0.9-1.5c0-0.1,0-0.5,0-1.1
		c0-0.6,0-0.9,0-1.1c0-1.7,0.3-3.1,0.9-4.2c0.6-1.1,1.2-2.2,1.9-3.1c0.7-0.9,1.3-1.8,1.9-2.7c0.6-0.9,0.9-1.9,0.9-3h2.8
		c0-0.2,0-0.4-0.1-0.6c-0.1-0.2-0.1-0.5-0.1-0.7c0-0.2,0.1-0.4,0.2-0.6s0.4-0.3,0.7-0.3s0.7,0.3,1,0.9c0.3,0.6,0.8,0.9,1.5,0.9v0.9
		c0.2,0,0.4,0,0.4,0c0.1,0,0.1-0.1,0.3-0.4v-3.8c0-0.1,0.1-0.3,0.2-0.4c0.1-0.2,0.2-0.3,0.3-0.4c0.5,0,0.9,0.1,1.2,0.4
		c0.3,0.3,0.5,0.6,0.6,1c0.1,0.4,0.3,0.8,0.4,1.2c0.1,0.4,0.2,0.8,0.5,1.2c0.4-0.1,0.5-0.3,0.5-0.8c0-0.5,0-0.7,0-0.8
		c0-1-0.2-1.6-0.7-1.8c-0.4-0.2-1.2-0.6-2.2-1.3v-0.4h3.1c0.2,0,0.4,0.1,0.6,0.4c0.1,0.2,0.2,0.5,0.3,0.8c0.1,0.3,0.1,0.6,0.1,0.9
		c0,0.3,0,0.5,0,0.7h1.2l0.8-1.9l2.3,1.1c0.2-0.6,0.6-0.9,1.1-0.9c0.5,0,0.7,0.2,0.7,0.5s0.1,0.6,0.4,0.7c0.1,0.1,0.2,0.1,0.4-0.1
		c0.1-0.1,0.1-0.1,0.2-0.1v-1.5c0.1,0.1,0.1,0.1,0.3,0.1c0.1,0,0.1,0,0.2,0c0.1,0,0.1,0,0.2,0c0.3,0.1,0.4,0.4,0.4,0.7
		c0,0.3-0.1,0.5-0.2,0.7c-0.1,0.2-0.2,0.4-0.2,0.7v0.2l0.4,0.4h0.2c0.5,0,0.7-0.3,0.8-0.9c0-0.6,0-1,0-1.1c0.4,0,0.9,0.2,1.4,0.6
		c0.5,0.4,0.9,0.8,1.1,1.1c0.1-0.1,0.2-0.2,0.4-0.4c0.2-0.2,0.4-0.4,0.7-0.6c0.2-0.2,0.5-0.3,0.7-0.5c0.2-0.1,0.3-0.2,0.4-0.2
		c0.5,0,0.8,0.2,1.1,0.6c0.2,0.4,0.4,0.8,0.5,1.3c0.1,0.5,0.1,1,0.1,1.5s0,0.8,0.1,1c0.1,0.1,0.2,0.3,0.6,0.6
		c0.3,0.3,0.5,0.5,0.6,0.6v0.2c0,0.1,0,0.1,0.1,0.2c0,0.1,0,0.1,0,0.2c0,0.1,0,0.2,0,0.2c0,0.1,0,0.4-0.1,0.8
		c-0.1,0.4-0.2,0.7-0.2,0.8h-0.2c-0.3,0-0.5-0.1-0.6-0.2c-0.1-0.1-0.2-0.3-0.3-0.5c-0.1-0.2-0.3-0.3-0.5-0.5
		c-0.2-0.1-0.7-0.2-1.3-0.2c-0.1,0.1-0.1,0.2-0.2,0.3c-0.1,0.2-0.1,0.3-0.1,0.4c0.1,0.1,0.2,0.1,0.6,0.2c0.3,0.1,0.5,0.1,0.6,0.2
		c0.2,0.1,0.4,0.3,0.4,0.5c0.1,0.2,0.1,0.4,0.2,0.6c0.1,0.2,0.1,0.4,0.3,0.5c0.1,0.1,0.4,0.2,0.7,0.2c0,0.2-0.1,0.4-0.4,0.6
		c-0.2,0.2-0.5,0.4-0.8,0.5c-0.3,0.2-0.6,0.4-0.8,0.6c-0.2,0.2-0.4,0.5-0.4,0.8c0,0.5,0.1,0.8,0.4,1c0.3,0.2,0.4,0.5,0.4,1
		c-0.1,0.1-0.1,0.2-0.1,0.3v0.4c-0.1-0.2-0.2-0.4-0.5-0.6c-0.3-0.2-0.6-0.4-0.9-0.7c-0.3-0.2-0.6-0.4-1-0.6
		c-0.3-0.1-0.6-0.2-0.8-0.2c-0.2,0-0.4,0.1-0.5,0.2c-0.1,0.1-0.3,0.2-0.5,0.2h-0.2c-0.1-0.1-0.3-0.2-0.5-0.4
		c-0.2-0.2-0.4-0.4-0.7-0.7c-0.3-0.3-0.5-0.5-0.7-0.7c-0.2-0.2-0.3-0.4-0.4-0.5c-0.2-0.2-0.3-0.4-0.3-0.6c0-0.2-0.1-0.4-0.1-0.7
		c0-0.2-0.1-0.4-0.2-0.5c-0.1-0.1-0.3-0.2-0.6-0.2c-0.3,0-0.8,0-1.6,0.1c-0.8,0.1-1.6,0.2-2.4,0.3c-0.9,0.1-1.7,0.2-2.4,0.2
		c-0.8,0.1-1.3,0.1-1.6,0.2c-0.8,0.1-1.4,0.2-1.8,0.4c-0.4,0.2-0.7,0.5-0.8,0.9c-0.2,0.4-0.3,0.8-0.5,1.3c-0.1,0.5-0.4,1-0.8,1.6
		c-0.4-0.1-0.5-0.2-0.4-0.4c0.1-0.1,0.2-0.2,0.2-0.4c-0.4,0-0.8,0-1.1-0.1c-0.3-0.1-0.6-0.1-0.8,0c-0.2,0-0.4,0.2-0.4,0.4
		c-0.1,0.3-0.1,0.7-0.1,1.4s0.3,1,0.8,1c0.4,0,0.6-0.2,0.7-0.7c0-0.4,0.2-0.7,0.6-0.7c0,0.4,0,0.8,0.1,1.5c0.1,0.6,0.2,1.2,0.4,1.8
		c0.2,0.6,0.5,1.1,0.8,1.5c0.4,0.4,0.8,0.7,1.2,0.7h-0.1c-0.1,0.1-0.2,0.1-0.3,0.2c-0.1,0.1-0.1,0.1-0.1,0.2c0,0.1,0,0.1-0.1,0.1
		v0.4c0,0.4,0.2,0.6,0.6,0.7c0.4,0.1,0.8,0.3,1.1,0.4c0.4,0.1,0.7,0.4,1,0.7c0.3,0.3,0.3,0.7,0,1.3c0.1-0.2,0.4-0.4,0.8-0.4
		c0.5,0,0.8,0.2,0.9,0.5c0.1,0.3,0.3,0.7,0.4,1c0.1,0.4,0.2,0.7,0.4,1c0.2,0.3,0.5,0.5,1,0.5h0.4c-0.3-0.3-0.5-0.6-0.5-1
		c0-0.4,0-0.7,0-1s-0.1-0.6-0.3-0.8c-0.2-0.3-0.5-0.5-1.1-0.7c0.1-0.1,0.2-0.1,0.4-0.1c0.1,0,0.2,0,0.3,0c0.5,0,0.9,0.1,1.3,0.4
		c0.4,0.3,0.8,0.6,1.2,1c0.4,0.4,0.8,0.7,1.2,1.1c0.4,0.4,0.8,0.6,1.3,0.7c0.4,0.1,0.8,0.3,1.4,0.4c0.6,0.2,0.9,0.3,0.9,0.4l1.9,3.8
		c0-0.1,0-0.3,0.1-0.6c0.1-0.3,0.2-0.5,0.2-0.6l0.1-0.1h0.1h0.1l0.1,0.1c0.5,0.8,0.9,1.7,1.2,2.7l0.7-0.4c-0.2,0.6-0.3,1.2-0.2,1.9
		c0.1,0.7,0.3,1.3,0.7,1.9c0.3,0.6,0.8,1.1,1.3,1.5c0.5,0.4,1.1,0.7,1.7,0.8c0.4,0.5,0.8,1.1,1.1,1.7c0.4,0.6,0.5,1.3,0.5,1.9
		c0,0.4-0.3,0.8-0.8,1.5c-0.6,0.6-1.1,0.8-1.5,0.7c0.5,0.6,0.7,1.4,0.7,2.3c0,0.4-0.1,0.9-0.2,1.6c-0.1,0.7-0.5,1.1-1.1,1.1h-0.2
		c-0.1-0.1-0.2-0.1-0.4-0.2c-0.2-0.1-0.3-0.1-0.4-0.3v0.3v0.2c0.1,0.2,0.1,0.6,0.3,1.1c0.1,0.5,0.2,0.8,0.2,0.9l0.4,0.4
		c-0.1,0.1-0.3,0.3-0.4,0.6c-0.2,0.3-0.3,0.5-0.4,0.6c-0.3,0.6-0.5,0.9-0.7,1.1c-0.2,0.1-0.4,0.4-0.8,0.9c0.2,0.3,0.4,0.4,0.8,0.4
		v1.1c-0.5,0-1-0.2-1.4-0.7c-0.4-0.4-0.8-0.7-1.2-0.7l-0.2,0.1l-0.8,4.2c0,0.1-0.1,0.2-0.4,0.4h-0.2c-0.2,0-0.4-0.1-0.5-0.3
		c-0.1-0.2-0.1-0.4-0.2-0.5c0-0.2-0.1-0.4-0.1-0.5c-0.1-0.2-0.2-0.3-0.4-0.3c-0.5,0-0.9,0.2-1,0.7c-0.1,0.4-0.2,0.9-0.3,1.4h-0.4
		c-0.5,0-0.9-0.3-1.1-0.8c-0.3-0.5-0.5-0.9-0.7-1.2c-0.3,0.1-0.4,0.2-0.4,0.4c0,0.2,0,0.4,0,0.6c0,0.3,0.1,0.5,0.2,0.6
		c0.1,0.1,0.2,0.3,0.2,0.6c0,0.3,0,0.6-0.1,0.9c-0.1,0.3-0.3,0.5-0.7,0.5c-0.1,0-0.1,0-0.2,0c-0.1,0-0.1,0-0.3,0
		c0.1-0.1,0.1-0.4,0-0.8c-0.1-0.4-0.2-0.6-0.4-0.8h-0.3h-0.2c-0.1,0-0.1,0-0.1-0.1c-0.3,0-0.6,0-0.9,0c-0.3,0-0.5,0.2-0.5,0.6v0.2
		c0.1,0.1,0.2,0.1,0.4,0.2c0.2,0.1,0.3,0.2,0.4,0.2l0.1,0.1c0,0.1,0,0.1,0.1,0.1c-0.6,0-0.9,0.1-1.1,0.2c-0.1,0.1-0.1,0.3-0.1,0.4
		c0.1,0.2,0.1,0.4,0.1,0.7c0,0.3-0.1,0.5-0.3,0.8c-0.1,0.1-0.3,0.1-0.7,0.2c-0.4,0.1-0.7,0.1-0.8,0.2c-0.1,0-0.2,0.1-0.3,0.4
		c-0.1,0.2-0.1,0.4-0.2,0.4c0,0.1,0,0.1-0.1,0.1h-0.3c-0.5,0-0.8-0.2-1-0.5c-0.2-0.3-0.6-0.5-1.1-0.5c-0.1,0-0.3,0-0.5,0
		c-0.2,0-0.4,0-0.4,0s-0.2,0.1-0.4,0.4c-0.2,0.3-0.3,0.4-0.4,0.4c-0.1,0-0.3-0.1-0.6-0.4c-0.3-0.3-0.5-0.4-0.6-0.4
		c-0.1-0.1-0.3-0.1-0.7-0.2c-0.3-0.1-0.7-0.2-1-0.4c-0.4-0.1-0.7-0.3-1-0.4C223.2,77.9,222.9,77.8,222.7,77.7z M217.8,27
		c-0.2,0-0.4,0.1-0.4,0.4c0,0.2,0.1,0.4,0.4,0.4c0.2,0,0.3-0.1,0.3-0.4C218.1,27.1,218,27,217.8,27z M219.6,33.5
		c0,0.3,0.1,0.5,0.4,0.6c0.3,0.1,0.5,0.1,0.8,0.1c0.5,0,0.8-0.1,1-0.2c0.2-0.1,0.3-0.5,0.3-0.9c0-0.1,0-0.3,0-0.6
		c0-0.3-0.2-0.5-0.5-0.5c0.2,0.3,0.2,0.5,0,0.8c-0.1,0.2-0.4,0.4-0.6,0.5c-0.3,0.1-0.5,0.2-0.8,0.3C220,33.5,219.7,33.5,219.6,33.5z
		 M220.4,35.8c0.2,0.3,0.4,0.4,0.8,0.4v-0.4H220.4z M221.9,34.9c0.6,0,0.9,0.3,1,1c0.1,0.6,0.1,1.1,0.1,1.4c0.6-0.5,1-1.1,1.1-2
		c0.1-0.9,0.1-1.6,0.1-2.3c0-0.1,0-0.2,0-0.3c0-0.1-0.1-0.2-0.4-0.3c0.1,0.6,0,1.2-0.4,1.6c-0.4,0.4-0.9,0.6-1.5,0.7V34.9z
		 M223.1,41.9c-0.2,0-0.3,0.1-0.3,0.4c0,0.3,0.1,0.4,0.3,0.4c0.2,0,0.4-0.1,0.4-0.4C223.4,42.1,223.3,41.9,223.1,41.9z M223.1,40.8
		c-0.1-0.1-0.2,0-0.2,0.2s0.1,0.3,0.2,0.3c0.1-0.1,0.2-0.1,0.2-0.3C223.3,40.8,223.2,40.8,223.1,40.8z M223.9,76.6h0.4v-0.4h-0.4
		V76.6z M225,21.1c-0.3,0.3-0.4,0.6-0.4,0.8h0.4V21.1z M225.5,73.5c0.1-0.1,0-0.2-0.2-0.2s-0.3,0.1-0.3,0.2c0.1,0.1,0.1,0.2,0.3,0.2
		C225.4,73.7,225.5,73.6,225.5,73.5z M225.5,42.4h0.4v-0.4L225.5,42.4z M227,75.4c-0.7,0-1.1,0.1-1.3,0.4c-0.2,0.2-0.1,0.5,0.1,0.8
		c0.2,0.3,0.7,0.5,1.3,0.8c0.6,0.2,1.4,0.4,2.3,0.4c0.1,0,0-0.1-0.2-0.4c-0.2-0.2-0.4-0.5-0.7-0.8c-0.3-0.3-0.6-0.5-0.9-0.8
		C227.2,75.5,227,75.4,227,75.4z M225.7,26.5c0,0.6,0.3,0.9,0.9,0.9v-0.9H225.7z M226.2,77.4c-0.2,0-0.3,0.1-0.3,0.4
		c0,0.3,0.1,0.4,0.3,0.4c0.2,0,0.4-0.1,0.4-0.4C226.5,77.5,226.4,77.4,226.2,77.4z M226.6,25.4h0.7V25h-0.7V25.4z M227,22.3
		c-0.2,0-0.3,0.1-0.3,0.4c0,0.3,0.1,0.4,0.3,0.4s0.3-0.1,0.3-0.4C227.2,22.4,227.2,22.3,227,22.3z M227.8,43.9c0,0.1,0,0.3,0.1,0.6
		c0.1,0.3,0.2,0.5,0.2,0.6c0.3-0.1,0.5-0.4,0.5-0.8c0.1-0.4,0.1-0.7,0.1-0.8c-0.2,0-0.4,0-0.6,0.1C227.9,43.6,227.8,43.7,227.8,43.9
		z M227.8,74.3c0,0.4,0.1,0.7,0.4,0.8c0-0.1,0-0.1,0-0.2c0-0.1,0-0.2,0-0.2c0-0.4-0.1-0.6-0.4-0.7V74.3z M228.1,41.2
		c-0.2,0-0.3,0.1-0.3,0.4c0,0.2,0.1,0.4,0.3,0.4c0.2,0,0.3-0.1,0.3-0.4C228.4,41.3,228.3,41.2,228.1,41.2z M230.4,66.6
		c-0.1,0.1-0.5,0.4-1.1,0.8c-0.6,0.4-0.9,0.7-0.9,0.9l2.7,0.8L230.4,66.6z M229.3,21.6c-0.1-0.1-0.2,0-0.2,0.1
		c0,0.1,0.1,0.2,0.2,0.2c0.1-0.1,0.2-0.1,0.2-0.2C229.5,21.6,229.4,21.6,229.3,21.6z M230.4,47.3h0.5c0-0.2-0.2-0.5-0.5-0.7V47.3z
		 M233.5,45c-0.1-0.1-0.2,0-0.2,0.2s0.1,0.3,0.2,0.3C233.8,45.2,233.8,45,233.5,45z M235.3,17.3c-0.4,0-0.7,0.2-0.8,0.5
		c-0.1,0.3-0.2,0.6-0.2,0.9v0.6c0.2-0.1,0.5-0.3,0.9-0.6c0.4-0.3,0.6-0.6,0.6-1c0-0.2-0.1-0.4-0.4-0.4L235.3,17.3z M234.7,45h0.4
		v-0.4h-0.4V45z M235.8,41.2c-0.2,0-0.3,0.1-0.3,0.4c0,0.2,0.1,0.4,0.3,0.4s0.3-0.1,0.3-0.4C236.1,41.3,236,41.2,235.8,41.2z
		 M235.6,48.5c0,0.3,0.2,0.5,0.6,0.6c0.4,0.1,0.6,0.2,0.8,0.2c0.1-0.1,0.2-0.2,0.4-0.4c0.1-0.2,0.1-0.3,0.1-0.4H235.6z M235.8,71.6
		l0.4-0.4h-0.4V71.6z M236.2,42.4h0.4l-0.4-0.4V42.4z M236.6,47l0.4-0.4h-0.8L236.6,47z M237,44.3c-0.2,0-0.3,0.1-0.3,0.4
		c0,0.2,0.1,0.4,0.3,0.4c0.2,0,0.4-0.1,0.4-0.4C237.3,44.4,237.2,44.3,237,44.3z M237.4,49.6c-0.4,0.3-0.5,0.6-0.5,0.8h0.5V49.6z
		 M238.6,71.2c-0.4,0-0.7,0.1-0.8,0.4h1.1C238.9,71.3,238.8,71.2,238.6,71.2z M238.1,47.3h0.6c0-0.2,0-0.4-0.1-0.6
		c-0.1-0.2-0.2-0.4-0.5-0.5V47.3z M239.1,42.6c-0.2,0-0.3,0.1-0.4,0.4c-0.1,0.2-0.2,0.5-0.2,0.8c-0.1,0.3-0.1,0.6-0.1,0.8
		s0,0.4,0,0.5c0.4,0,0.7-0.1,1-0.4c0.3-0.2,0.4-0.5,0.4-0.9c0-0.2,0-0.4-0.1-0.8C239.6,42.8,239.4,42.6,239.1,42.6z M238.9,50.4h0.4
		l-0.4-1.1V50.4z M239.3,17c-0.2,0-0.3,0.1-0.3,0.4c0,0.2,0.1,0.4,0.3,0.4c0.2,0,0.4-0.1,0.4-0.4C239.6,17.1,239.5,17,239.3,17z
		 M240.9,43.5c-0.1-0.1-0.2,0-0.2,0.4c0,0.4,0.1,0.5,0.2,0.4C241.1,43.9,241.1,43.6,240.9,43.5z M240.8,53.5c0,0.5,0.1,1,0.3,1.5
		c0.2,0.5,0.6,0.8,1.3,0.8h0.4c0.2-0.1,0.5-0.1,1-0.2c0.5-0.1,0.8-0.1,0.9-0.2c0.1-0.1,0.1-0.1,0.1-0.2c0-0.2-0.1-0.4-0.3-0.4
		c-0.2,0-0.4-0.1-0.5-0.1c-0.2,0-0.4-0.1-0.5-0.2c-0.2-0.1-0.3-0.4-0.3-0.7c-0.4,0.3-0.7,0.4-0.8,0.4c-0.1,0-0.5,0-0.9,0
		c0-0.5,0.1-0.8,0.2-1.1c0.1-0.2-0.1-0.5-0.8-0.8c0,0.1,0,0.3,0,0.6C240.8,53.2,240.8,53.4,240.8,53.5z M241.2,62.7
		c-0.1-0.1-0.2,0-0.2,0.2s0.1,0.3,0.2,0.3c0.1-0.1,0.2-0.1,0.2-0.3C241.4,62.8,241.3,62.7,241.2,62.7z M241.6,48.5
		c0.1-0.1,0-0.2-0.1-0.2c-0.1,0-0.2,0.1-0.2,0.2c0.1,0.1,0.1,0.2,0.2,0.2C241.5,48.6,241.6,48.6,241.6,48.5z M241.6,61.2
		c-0.2,0-0.3,0.1-0.3,0.4c0,0.3,0.1,0.4,0.3,0.4c0.2,0,0.4-0.1,0.4-0.4C241.9,61.3,241.8,61.2,241.6,61.2z M242,49.6
		c0,0.5,0.2,0.9,0.7,1.2v-2C242.2,48.8,242,49.1,242,49.6z M242.4,18.1c-0.2,0-0.3,0.1-0.3,0.4c0,0.2,0.1,0.4,0.3,0.4
		s0.3-0.1,0.3-0.4C242.6,18.3,242.5,18.1,242.4,18.1z M242.4,47.3c0.2,0.4,0.4,0.5,0.8,0.5v-0.5H242.4z M245.2,50.6
		c-0.6,0-1.2,0.1-1.8,0.4c-0.5,0.3-0.8,0.8-0.8,1.5c0.5,0,1-0.2,1.6-0.5C244.9,51.6,245.2,51.2,245.2,50.6z M243.9,21.6h0.5
		c0-0.4-0.2-0.6-0.5-0.8V21.6z M244.3,49.6h0.4l-0.4-0.4V49.6z M244.7,58.9h0.4v-0.8h-0.4V58.9z M248.2,61.1c-0.3,0-0.6,0.1-0.8,0.3
		c-0.3,0.2-0.5,0.4-0.8,0.6h0.5C247.8,62,248.2,61.7,248.2,61.1z M247.4,59.2c0.3-0.2,0.4-0.4,0.4-0.7h-0.4V59.2z M247.8,55
		c-0.1-0.1-0.2,0-0.2,0.2s0.1,0.3,0.2,0.3c0.1-0.1,0.2-0.1,0.2-0.3C247.9,55.1,247.9,55,247.8,55z M248.1,56.6
		c-0.2,0-0.3,0.1-0.3,0.4c0,0.2,0.1,0.4,0.3,0.4c0.2,0,0.4-0.1,0.4-0.4C248.5,56.7,248.3,56.6,248.1,56.6z"/>
	<path class="st5" d="M284.6,76.2c0-0.2-0.1-0.5-0.2-0.9c-0.1-0.4-0.3-0.8-0.3-0.9c-0.1-0.1-0.2-0.3-0.4-0.7
		c-0.2-0.3-0.4-0.5-0.5-0.7c0,0.1-0.1,0.1-0.2,0.3c-0.1,0.1-0.2,0.2-0.3,0.2c-0.1,0.1-0.2,0.2-0.4,0.3c-0.2,0.1-0.4,0.2-0.4,0.2
		c-0.1,0-0.3,0.1-0.5,0.4c-0.2,0.2-0.4,0.4-0.5,0.4L280,74c-0.1,0.1-0.2,0.2-0.4,0.4c-0.2,0.2-0.4,0.4-0.5,0.4l-0.2,0.1l-0.3-0.1
		c-0.2-0.1-0.5-0.2-0.9-0.4c-0.4-0.2-0.7-0.4-0.8-0.4c-0.1,0-0.1-0.1-0.2-0.4c-0.1-0.3-0.2-0.5-0.2-0.5c-0.2-0.3-0.4-0.4-0.5-0.4
		c-0.1,0.1-0.2,0.2-0.4,0.3c-0.1,0.1-0.1,0.1-0.3,0.1c-0.1,0-0.1,0-0.2,0.1c0,0.1,0,0.1-0.1,0.1h-0.2h-0.2c-0.1,0-0.1,0-0.1-0.1
		c-0.1-0.1-0.3-0.4-0.6-0.8c-0.3-0.4-0.5-0.6-0.7-0.7c-0.1,0-0.2,0.1-0.4,0.3c-0.2,0.2-0.4,0.3-0.4,0.3H272h-0.4
		c-0.2,0-0.5-0.1-1-0.2c-0.5-0.1-0.8-0.2-0.9-0.3s-0.4-0.2-0.7-0.4c-0.4-0.2-0.6-0.3-0.6-0.4c-0.1-0.1-0.1-0.2-0.1-0.4
		c0-0.2-0.1-0.4-0.1-0.7c0-0.3-0.1-0.5-0.1-0.8c0-0.2,0-0.4,0-0.4c-0.1-0.2-0.4-0.6-0.9-1.1c-0.5-0.6-0.8-0.9-1-1.1
		c-0.1,0.1-0.2,0.1-0.3,0.2c-0.1,0.1-0.2,0.2-0.2,0.2c0,0.1-0.1,0.3-0.4,0.6s-0.4,0.6-0.4,0.7c0,0.1,0,0.1-0.1,0.1h-0.2h-0.2
		c-0.1,0-0.1,0-0.1-0.1c-0.1-0.1-0.3-0.2-0.6-0.4c-0.4-0.2-0.6-0.4-0.6-0.4c-0.1,0-0.4-0.1-0.7-0.2s-0.6-0.2-0.6-0.3
		c-0.1-0.1-0.2-0.4-0.3-0.9c-0.1-0.6-0.2-1-0.2-1.3c-0.1-0.1-0.1-0.2-0.1-0.4v-0.5c0-0.1,0-0.3,0-0.5c0-0.2,0-0.4,0-0.4
		c0-0.1,0.1-0.1,0.2-0.3c0.1-0.1,0.2-0.2,0.3-0.2h-1l-0.9-3.1h-0.5c0.1,0.2,0,0.5,0,0.9c-0.1,0.4-0.2,0.7-0.3,0.8
		c-0.1,0.1-0.2,0.1-0.3,0.1c-0.1,0-0.3,0-0.4,0c-0.1,0-0.2,0-0.3,0c-0.1,0-0.3-0.1-0.3-0.1c-0.1-0.2-0.1-0.8-0.3-1.5
		c-0.1-0.8-0.2-1.3-0.3-1.5c-0.1-0.2-0.1-0.5-0.2-1c-0.1-0.5-0.2-0.7-0.2-0.8c0-0.1-0.1-0.2-0.4-0.3c-0.2-0.1-0.4-0.1-0.5-0.1v-5.8
		c-0.1-0.1-0.3-0.2-0.5-0.4c-0.2-0.2-0.3-0.4-0.4-0.5c0-0.1,0-0.2,0-0.4c0-0.2,0-0.4,0-0.5c0-0.2,0-0.4,0-0.7c0-0.3,0-0.5,0-0.5
		c0-0.1,0.1-0.4,0.2-0.9c0.1-0.5,0.2-0.8,0.3-0.8c0-0.1,0-0.5,0.1-1.2c0.1-0.7,0.2-1.1,0.2-1.2c0-0.1,0-0.1,0.1-0.2
		c0.1-0.1,0.1-0.1,0.1-0.1c0,0,0-0.1,0.1-0.1l0.2-0.4c0.1-0.1,0.1-0.4,0.3-0.9c0.1-0.5,0.2-0.8,0.2-0.9c0-0.1,0-0.2,0.1-0.5
		c0.1-0.3,0.1-0.5,0.1-0.8c0-0.3,0.1-0.6,0.1-0.8c0.1-0.3,0.1-0.4,0.1-0.5c0.1-0.2,0.1-0.5,0.3-1c0.1-0.5,0.2-0.8,0.3-0.9
		c0.1,0,0.1-0.1,0.2-0.3c0.1-0.2,0.1-0.4,0.1-0.5c0.1-0.1,0.2-0.4,0.5-0.7c0.3-0.4,0.4-0.6,0.5-0.7c0-0.1,0.1-0.3,0.2-0.6
		c0.1-0.4,0.2-0.6,0.2-0.7c0.1-0.1,0.2-0.1,0.3-0.2l0.3-0.3c0-0.1,0.1-0.2,0.2-0.4c0.1-0.2,0.2-0.4,0.3-0.4c0.1-0.2,0.3-0.6,0.8-1.2
		c0.5-0.6,0.8-0.9,0.9-1l0.2,0.2c0.1,0.1,0.1,0.1,0.3,0.2c0.1,0.1,0.2,0.1,0.3,0.1h0.3h0.2c0.1,0,0.1,0,0.2-0.1
		c0.1-0.1,0.3-0.3,0.5-0.6c0.2-0.4,0.3-0.6,0.4-0.7c0.1-0.1,0.2-0.1,0.5-0.2c0.3-0.1,0.4-0.2,0.5-0.2c0.1-0.1,0.2-0.2,0.4-0.5
		c0.2-0.3,0.4-0.4,0.5-0.5c0.1,0,0.2,0,0.4,0c0.2,0,0.4,0,0.4,0c0.1,0,0.2-0.2,0.3-0.6c0.1-0.4,0.1-0.6,0.1-0.8
		c0.3,0.1,0.8,0,1.4-0.2c0.6-0.2,1.1-0.4,1.3-0.7c0.1-0.1,0.2-0.5,0.4-1c0.1-0.6,0.1-0.9,0.1-1.1l0.2-0.1l0.3,0.1
		c0.1,0.1,0.3,0.2,0.5,0.4c0.2,0.2,0.3,0.3,0.3,0.4v1l0.5,0.4v0.5v0.4c-0.1,0.1-0.1,0.2-0.3,0.4c-0.1,0.1-0.2,0.2-0.3,0.2
		c-0.1,0.1-0.2,0-0.5,0c-0.3-0.1-0.5-0.1-0.6-0.1c0,0.2,0,0.6-0.1,1.2c-0.1,0.6-0.1,1,0,1.1c0,0.1,0,0.3,0.1,0.5
		c0.1,0.2,0.2,0.4,0.3,0.4c0.1,0,0.1-0.1,0.2-0.2c0.1-0.1,0.2-0.2,0.2-0.4c0.1-0.1,0.2-0.3,0.4-0.7c0.2-0.3,0.4-0.5,0.5-0.7
		c-0.1,0.2-0.1,0.5,0,1c0.1,0.5,0.3,0.8,0.4,0.9c0.1,0.1,0.3,0.2,0.7,0.3c0.3,0.1,0.5,0.2,0.7,0.2v2.6l-0.5,0.4
		c-0.1,0-0.1-0.1-0.2-0.2c-0.1-0.1-0.1-0.2-0.1-0.3c-0.1-0.1-0.1-0.4-0.3-0.7c-0.1-0.4-0.2-0.6-0.2-0.7c-0.1-0.1-0.1-0.1-0.2-0.2
		c-0.1-0.1-0.2-0.1-0.2-0.2c-0.1,0-0.1,0-0.1,0c0,0-0.1,0-0.1,0h-0.2c0,0.1,0,0.2,0,0.4c0,0.2,0,0.3,0,0.4c0,0.1,0.1,0.3,0.3,0.7
		c0.2,0.3,0.3,0.5,0.3,0.7c-0.1,0.1-0.1,0.1-0.2,0.1s-0.1,0-0.3,0.1c-0.1,0.1-0.3,0.1-0.4,0.2c-0.1,0.1-0.2,0.4-0.3,0.8
		c-0.1,0.4-0.1,0.6-0.1,0.7c-0.1,0.1-0.3,0.4-0.5,0.9c-0.2,0.5-0.3,0.8-0.4,0.9l-0.5,0.5c-0.1,0.1-0.3,0-0.5,0
		c-0.2-0.1-0.4-0.1-0.5-0.1v2h-0.3c-0.2,0-0.4,0-0.4-0.1c-0.1-0.1-0.4-0.2-0.8-0.4c-0.4-0.2-0.6-0.4-0.7-0.4c-0.1,0-0.1,0-0.1,0
		c0,0,0,0-0.1,0h-0.2c0,0.1,0,0.1-0.1,0.2c-0.1,0.1-0.1,0.1,0,0.2c0.1,0.1,0.2,0.4,0.4,0.8c0.2,0.4,0.4,0.8,0.5,0.9
		c0,0.1-0.1,0.2-0.2,0.3c-0.1,0.1-0.2,0.1-0.3,0.1c-0.1,0-0.3-0.1-0.6-0.2s-0.6-0.2-0.7-0.3c-0.1,0-0.1,0-0.3,0c-0.1,0-0.2,0-0.3,0
		c0,0.1,0,0.1,0,0.2c0,0.1,0,0.1,0,0.2c-0.1,0.1-0.2,0.4-0.3,0.7c-0.1,0.4-0.2,0.6-0.2,0.7V41v0.2c0,0.1,0.1,0.1,0.3,0.3
		s0.3,0.2,0.3,0.3v0.6v0.7c-0.1,0.1-0.2,0.5-0.3,1.1c-0.1,0.6-0.2,1-0.2,1.1v1.9c0,0.1-0.1,0.3-0.2,0.6c-0.1,0.4-0.2,0.6-0.2,0.7
		c-0.1,0.1-0.1,0.6-0.3,1.4c-0.1,0.8-0.2,1.4-0.3,1.7v0.3V52l1.9-0.8l0.4,0.8l-0.4,0.2c-0.1,0.1-0.1,0.1-0.1,0.1c0,0-0.1,0-0.1,0.1
		c-0.1,0.1-0.1,0.1-0.2,0.1c-0.1,0-0.2,0-0.3,0.1c-0.1,0.1-0.2,0.2-0.2,0.3v0.2c0,0.1,0,0.1,0,0.2c0,0.1,0,0.1,0,0.2h1
		c-0.1,0.1-0.1,0.1-0.1,0.2v0.2c-0.1,0.1-0.1,0.2-0.3,0.4c-0.1,0.2-0.2,0.4-0.2,0.5c-0.1,0-0.1,0-0.1,0.1V55l0.1,0.1
		c0.1,0.1,0.2,0.1,0.4,0.3c0.2,0.1,0.4,0.2,0.4,0.3s-0.1,0.2-0.2,0.4c-0.1,0.2-0.2,0.4-0.2,0.5v0.2v0.3c0,0.1,0.1,0.1,0.2,0.3
		c0.1,0.1,0.2,0.2,0.2,0.3c0-0.1,0.1-0.2,0.2-0.4c0.1-0.1,0.2-0.2,0.3-0.2h0.1c0.1,0,0.1,0,0.1,0c0,0,0,0,0.1,0c0.1,0,0.1,0,0.2,0.1
		c0.1,0.1,0.1,0.2,0.2,0.4c0.1,0.2,0.2,0.4,0.2,0.5c0,0.1,0,0.1,0.1,0.3c0.1,0.1,0.2,0.2,0.3,0.2c0.1,0,0.2,0.1,0.4,0.2
		c0.2,0.1,0.4,0.2,0.5,0.4c0.1,0,0.2,0.2,0.4,0.5c0.2,0.4,0.4,0.6,0.5,0.7c0,0.1,0,0.2,0.1,0.4c0.1,0.2,0.2,0.4,0.2,0.4
		c0,0.1,0.1,0.2,0.2,0.3c0.1,0.1,0.2,0.1,0.4,0.1c0-0.1,0-0.2,0.1-0.4c0.1-0.2,0.2-0.4,0.3-0.4h0.2h0.3l0.4,0.4
		c0.1,0.1,0.2,0.3,0.4,0.4v1.3c0,0.1,0.1,0.2,0.2,0.3c0.1,0.1,0.2,0.1,0.4,0.1c0-0.1,0.1-0.3,0.2-0.4c0.1-0.2,0.2-0.3,0.3-0.4h0.3
		h0.2c0.1,0.1,0.5,0.4,1.3,0.8c0.7,0.4,1.2,0.6,1.3,0.7c0.1,0.1,0.4,0.1,0.7,0.2c0.4,0.1,0.6,0.1,0.7,0.1c0.1,0,0.2,0,0.3,0
		c0.1,0,0.3,0,0.4,0h0.4c0.1,0,0.1,0,0.2-0.1c0.1,0,0.4,0,0.7-0.1c0.4-0.1,0.6-0.2,0.6-0.2h0.9h0.5c0.1,0.1,0.3,0.3,0.7,0.7
		c0.3,0.4,0.5,0.6,0.7,0.7l0.3,0.1c0.1,0,0.1,0,0.2-0.1c0.1-0.1,0.4-0.2,0.7-0.4c0.4-0.2,0.6-0.4,0.7-0.5c0.1-0.1,0.3-0.1,0.7-0.2
		c0.3-0.1,0.5-0.1,0.7-0.1c0.1,0,0.3,0.1,0.6,0.2c0.4,0.1,0.6,0.2,0.6,0.2c0.1,0.1,0.4,0.1,0.9,0c0.5,0,0.8,0,0.9,0
		c0.1,0.1,0.3,0.2,0.5,0.5c0.2,0.3,0.3,0.4,0.4,0.4c0.1,0.1,0.3,0.2,0.7,0.3c0.3,0.1,0.5,0.1,0.7,0.1h0.5h0.4
		c0.2-0.1,0.3-0.1,0.4-0.2c0.2-0.1,0.4-0.2,0.4-0.2h0.7h0.6c0.1,0.1,0.3,0.2,0.4,0.5c0.2,0.3,0.3,0.4,0.4,0.4c0.2,0.1,0.5,0.1,1,0
		c0.5-0.1,0.8-0.2,0.9-0.2c0-0.2,0-0.4-0.1-0.8s-0.1-0.6,0-0.8c0-0.1,0-0.1,0.1-0.2c0.1-0.1,0.1-0.1,0.1-0.1c0,0,0.1,0,0.1-0.1
		c0.1-0.1,0.3-0.2,0.5-0.3c0.2-0.1,0.4-0.2,0.4-0.2c0.1,0,0.2,0,0.5,0s0.6,0,1,0s0.7,0,1,0c0.3,0,0.5,0,0.6,0c0.1,0,0.2,0,0.6-0.1
		c0.3-0.1,0.7-0.2,1-0.3c0.4-0.1,0.7-0.2,1-0.3s0.5-0.2,0.6-0.2c0.1,0,0.2,0,0.4,0c0.2,0,0.5,0,0.8,0c0.3,0,0.6,0,0.9,0
		c0.3,0,0.4,0,0.5,0c0.2-0.1,0.3-0.1,0.4-0.2c0.1-0.1,0.2-0.1,0.3-0.2c0.1-0.1,0.1-0.1,0.2-0.1c0.1,0,0.4,0,0.9,0c0.5,0,0.8,0,0.9,0
		c0.1,0,0.2-0.1,0.4-0.4c0.2-0.3,0.4-0.4,0.5-0.5c0.1-0.1,0.6-0.2,1.3-0.4c0.8-0.2,1.3-0.4,1.7-0.5h0.3h0.3c0.1,0,0.1,0.1,0.3,0.2
		c0.1,0.1,0.2,0.2,0.2,0.3c0,0.1,0,0.5,0.1,1.2c0.1,0.7,0.2,1.2,0.2,1.5c0,0.1,0,0.3,0,0.5c0,0.2,0,0.3,0,0.4h-1.4
		c0,0.2,0,0.6-0.1,1.1c-0.1,0.5-0.2,1.1-0.4,1.6c-0.1,0.6-0.3,1.1-0.4,1.6c-0.1,0.5-0.3,0.8-0.4,1c-0.1,0.2-0.3,0.4-0.6,0.8
		c-0.3,0.4-0.6,0.7-1,1.1c-0.4,0.4-0.8,0.8-1.1,1.1c-0.4,0.3-0.6,0.5-0.8,0.6c-0.1-0.1-0.4-0.1-0.9-0.2c-0.5-0.1-0.8-0.2-0.9-0.2
		h-1.1h-0.7c-0.2,0.1-0.5,0.2-0.9,0.4c-0.4,0.2-0.9,0.4-1.4,0.7c-0.5,0.2-0.9,0.5-1.3,0.7c-0.4,0.2-0.7,0.4-0.9,0.4
		c0-0.2,0-0.6-0.1-1.1c-0.1-0.6-0.2-0.9-0.3-1.1c-0.1-0.1-0.3-0.2-0.6-0.3c-0.4-0.1-0.6-0.1-0.7-0.2c-0.1,0-0.2-0.1-0.3-0.2
		c-0.1-0.1-0.2-0.2-0.2-0.3c-0.1,0-0.2,0-0.4-0.1c-0.2-0.1-0.3-0.2-0.4-0.2h-0.3h-0.3c-0.1,0.1-0.1,0.1-0.1,0.1c0,0-0.1,0-0.1,0.1
		c-0.1,0.1-0.1,0.1-0.1,0.2c-0.1,0.1-0.1,0.4-0.1,0.7s0,0.6,0.1,0.7c-0.1,0-0.2-0.1-0.3-0.2c-0.1-0.1-0.2-0.2-0.2-0.3
		c-0.1-0.1-0.1-0.3-0.3-0.7c-0.1-0.3-0.2-0.5-0.2-0.7c-0.2-0.3-0.3-0.4-0.4-0.4l-1.8,0.8v3c-0.1,0-0.3,0-0.4,0.1
		c-0.2,0.1-0.3,0.1-0.4,0.1c-0.1,0.1-0.1,0.2-0.3,0.4c-0.1,0.2-0.2,0.4-0.3,0.4c-0.1,0.2-0.3,0.4-0.7,0.8c-0.3,0.4-0.5,0.6-0.7,0.6
		c-0.1,0.1-0.5,0.2-1.1,0.4s-1,0.4-1.1,0.4l-0.5,0.5h-0.1h-0.3c-0.2-0.1-0.4-0.1-0.8-0.3c-0.3-0.1-0.5-0.2-0.6-0.3
		c-0.1,0-0.3-0.1-0.5-0.4c-0.2-0.2-0.4-0.4-0.4-0.4c-0.1-0.1-0.1-0.4-0.3-0.7c-0.1-0.4-0.2-0.6-0.3-0.7L284.6,76.2z M261.3,46.6
		c0,0.1,0.1,0.1,0.2,0.3c0.1,0.1,0.2,0.2,0.3,0.3h0.1h0.3l0.3-0.3c0.1-0.1,0.1-0.1,0.2-0.3l-0.8-1.7c-0.1,0-0.2,0.2-0.3,0.5
		c-0.1,0.4-0.2,0.6-0.2,0.7v0.3V46.6z M275.6,28.3c0.1-0.1,0.1-0.3,0.2-0.7c0.1-0.4,0.1-0.6,0.1-0.8v-0.2v-0.3c0-0.2,0-0.4-0.1-0.8
		c-0.1-0.3-0.2-0.5-0.2-0.6c-0.1-0.1-0.3-0.3-0.6-0.7c-0.4-0.4-0.6-0.6-0.7-0.8c-0.1-0.1-0.2-0.3-0.3-0.4c-0.1-0.2-0.2-0.3-0.2-0.4
		c0.1-0.1,0.2-0.1,0.3-0.2l0.3-0.3h0.2h0.2c0.1,0.1,0.1,0.1,0.2,0.1c0.1,0,0.1,0.1,0.2,0.1l0.2,0.2c0,0.1,0.1,0.3,0.2,0.5
		c0.1,0.2,0.2,0.4,0.3,0.4c0.1,0.1,0.3,0.1,0.5,0c0.2-0.1,0.3-0.2,0.4-0.2v-2.4c0.1,0.1,0.3,0.2,0.4,0.4c0.2,0.2,0.3,0.4,0.4,0.4
		h0.7h0.6c0.1,0,0.2-0.1,0.3-0.2c0.1-0.1,0.1-0.2,0.1-0.3c0.1-0.2,0.2-0.6,0.3-1.1c0.1-0.6,0.1-0.9,0.1-1.1c0.1,0.1,0.3,0.3,0.7,0.4
		c0.3,0.2,0.5,0.3,0.7,0.4h0.3h0.3c0.1-0.1,0.3-0.3,0.8-0.7c0.5-0.3,0.8-0.6,1-0.8l0.4-0.4c0.1-0.1,0.1-0.2,0.3-0.4
		c0.1-0.2,0.2-0.4,0.2-0.4l1.1,1.3v-2.9c0.4,0.1,0.8,0.1,1.1,0.1c0.3,0.1,0.6,0.1,0.9,0.1c0.3,0,0.6,0,0.8,0.1c0.1,0,0.1,0,0.1,0.1
		c0,0.1,0,0.2,0.1,0.2l0.2,0.2c0.1,0,0.2,0,0.5,0c0.3,0,0.4,0,0.5,0c0.1,0.1,0.1,0.3,0.2,0.7c0.1,0.4,0.2,0.6,0.2,0.8
		c0.1,0.1,0.1,0.2,0.2,0.4c0.1,0.2,0.2,0.3,0.2,0.4l0.5,0.5h0.1h0.3c0.2-0.1,0.4-0.4,0.6-0.9c0.2-0.5,0.4-0.8,0.4-1
		c0-0.1-0.1-0.3-0.4-0.5c-0.3-0.2-0.5-0.3-0.5-0.4l-0.2-0.4c-0.1-0.1-0.1-0.3-0.1-0.4h4.8c0.1,0.1,0.1,0.3,0.2,0.7
		c0.1,0.3,0.2,0.5,0.2,0.7c0.1,0.1,0.3,0.4,0.5,0.7c0.2,0.4,0.4,0.6,0.5,0.6h0.2h0.2c-0.1-0.1,0-0.4,0.1-0.9
		c0.1-0.5,0.3-0.8,0.4-0.9c0.1-0.1,0.3-0.1,0.8-0.2c0.5-0.1,0.8-0.2,0.9-0.2c0-0.1,0.1-0.2,0.2-0.4c0.1-0.2,0.2-0.4,0.3-0.4l0.2-0.1
		l0.3,0.1c0.1,0.1,0.2,0.2,0.4,0.4c0.2,0.2,0.4,0.4,0.4,0.5h0.3h0.2c0.1-0.1,0.2-0.1,0.4-0.3c0.2-0.1,0.4-0.2,0.4-0.2
		c0.1,0,0.1,0,0.3,0c0.1,0,0.2,0,0.3,0v2.4c0.1,0,0.2,0,0.4,0.1c0.2,0.1,0.4,0.2,0.5,0.2c0.1,0.1,0.1,0.2,0.2,0.3
		c0.1,0.1,0.2,0.2,0.3,0.2h0.4c0.1,0,0.2,0.1,0.4,0.2c0.2,0.1,0.4,0.3,0.5,0.3h0.4c0.1,0.1,0.1,0.4,0.2,0.8c0.1,0.4,0.2,0.8,0.2,0.9
		v0.7v0.5l-1.9-0.8c-0.1,0.1-0.2,0.2-0.3,0.4c-0.1,0.2-0.1,0.3,0,0.4c0,0.1,0.1,0.4,0.4,0.7c0.3,0.4,0.4,0.6,0.5,0.6v1.4v1.3
		c0,0.1-0.1,0.2-0.2,0.3c-0.1,0.1-0.3,0.1-0.3,0.1c-0.1,0-0.2-0.1-0.4-0.2c-0.1-0.1-0.2-0.1-0.4-0.3c-0.2,0-0.5,0-1,0.1
		c-0.5,0.1-0.8,0.1-0.9,0.1V28c-0.2,0-0.3-0.1-0.4-0.2l-0.9-0.9c-0.2,0.1-0.3,0.2-0.4,0.3c-0.1,0.1-0.1,0.1-0.3,0.1
		c-0.1,0-0.1,0-0.2,0.1c-0.1,0-0.4-0.1-0.7-0.4c-0.4-0.2-0.6-0.4-0.7-0.5c-0.1-0.1-0.1-0.3-0.2-0.7c-0.1-0.4-0.1-0.6-0.2-0.7
		c-0.1-0.1-0.4-0.4-0.8-0.9c-0.4-0.5-0.8-0.8-1-0.9c-0.1-0.1-0.2-0.1-0.4-0.3c-0.2-0.1-0.4-0.2-0.5-0.3c-0.1,0-0.3-0.1-0.8-0.2
		c-0.5-0.1-0.8-0.2-1-0.3h-0.3h-0.2c-0.1,0.1-0.2,0.1-0.5,0.3c-0.3,0.1-0.4,0.2-0.5,0.2s-0.2,0-0.4-0.1c-0.2-0.1-0.4-0.2-0.4-0.3
		c-0.2,0.1-0.5,0.3-1,0.7c-0.5,0.3-0.8,0.5-0.9,0.7c-0.1,0.1-0.4,0.3-0.9,0.5c-0.5,0.2-0.8,0.4-0.9,0.4c-0.1,0.1-0.4,0.2-0.9,0.3
		c-0.5,0.1-0.8,0.2-0.9,0.2c-0.1,0.1-0.2,0.1-0.4,0.3c-0.2,0.1-0.4,0.2-0.4,0.2c-0.1,0.1-0.3,0.1-0.8,0c-0.5,0-0.8,0-0.9,0
		c-0.1,0-0.2,0.1-0.4,0.2c-0.2,0.1-0.4,0.2-0.5,0.2c0,0.1-0.1,0.2-0.2,0.3c-0.1,0.1-0.3,0.2-0.3,0.2c0,0.1-0.1,0.1-0.4,0.3
		c-0.2,0.1-0.4,0.2-0.4,0.2c-0.2,0.1-0.5,0.4-1.1,0.7c-0.6,0.4-1,0.6-1.2,0.7c0,0.1-0.2,0.2-0.6,0.4c-0.4,0.2-0.6,0.4-0.8,0.4
		c-0.1,0.1-0.3,0.2-0.4,0.4c-0.2,0.1-0.3,0.2-0.4,0.2c-0.1,0.1-0.1,0.1-0.2,0.1h-0.3h-0.3c-0.1,0-0.1,0-0.3-0.1l-0.2-0.2
		c-0.1-0.1-0.2-0.2-0.2-0.4v-0.4V28.3z M285,66.3c-0.1-0.1-0.2,0-0.2,0.2c0,0.2,0.1,0.3,0.2,0.2c0.2-0.1,0.3-0.1,0.3-0.2
		C285.2,66.5,285.1,66.4,285,66.3z M285.4,73.5c0.1,0.1,0.2,0.4,0.4,0.7c0.2,0.4,0.4,0.6,0.4,0.6c0,0.1,0,0.1,0.1,0.1h0.2h0.2
		c0.1,0,0.1,0,0.1-0.1c0.1,0,0.1-0.1,0.2-0.2c0.1-0.1,0.1-0.2,0.1-0.3v-0.1c0-0.1,0-0.1,0-0.1c0,0,0,0,0-0.1c0-0.1,0-0.1-0.1-0.1
		c0-0.1-0.1-0.1-0.4-0.3c-0.2-0.1-0.4-0.2-0.5-0.3h-0.4H285.4z M287.1,18.3c0,0.1,0,0.2,0,0.5c0,0.3,0,0.5,0,0.6
		c0.1,0.1,0.1,0.1,0.3,0.2c0.1,0.1,0.2,0.1,0.3,0.2h0.2h0.3c0.1-0.1,0.1-0.1,0.2-0.2c0.1-0.1,0.1-0.1,0.1-0.2c0-0.1-0.1-0.3-0.3-0.5
		c-0.2-0.2-0.4-0.4-0.5-0.4c0-0.1-0.1-0.1-0.3-0.1S287.1,18.3,287.1,18.3z M287.7,65.9h0.4l-0.4-0.5V65.9z M290.5,74.1
		c-0.2,0-0.4,0.1-0.5,0.3c-0.1,0.1-0.1,0.3-0.2,0.7c-0.1,0.3-0.2,0.5-0.2,0.7c-0.1,0.1-0.1,0.3-0.1,0.5c0,0.2,0,0.3,0,0.4h0.5
		c0.1,0,0.1-0.2,0.2-0.7c0.1-0.4,0.2-0.8,0.2-1.1v-0.4c0-0.1,0-0.2,0-0.2C290.4,74.2,290.5,74.2,290.5,74.1z M289.5,69.9
		c0,0.1,0,0.3,0.1,0.5c0.1,0.2,0.2,0.3,0.3,0.4c0.1-0.1,0.3-0.2,0.5-0.4c0.2-0.2,0.4-0.4,0.4-0.5c0.1-0.1,0.1-0.2,0.1-0.4
		s0-0.3,0-0.4c-0.1,0-0.2,0-0.5,0.1c-0.3,0.1-0.5,0.1-0.6,0.1C289.6,69.6,289.5,69.8,289.5,69.9z M290.9,20.3
		c-0.3,0-0.4,0.1-0.4,0.4c0,0.3,0.1,0.4,0.4,0.4c0.2,0,0.3-0.1,0.3-0.4C291.2,20.4,291.1,20.3,290.9,20.3z M293.5,70.8
		c-0.2,0-0.4,0.1-0.4,0.4c0,0.3,0.1,0.4,0.4,0.4c0.2,0,0.4-0.1,0.4-0.4C293.9,71,293.8,70.8,293.5,70.8z M300.3,17.5
		c0,0.1,0.1,0.1,0.2,0.3c0.1,0.1,0.2,0.2,0.3,0.3v-0.3v-0.3c-0.2-0.3-0.3-0.4-0.4-0.4l-0.1,0.2L300.3,17.5z M302.6,71.1
		c-0.1,0-0.2,0-0.3,0c-0.1,0-0.3,0.1-0.3,0.1c-0.1,0.1-0.1,0.2-0.3,0.4c-0.1,0.2-0.2,0.4-0.2,0.5c-0.1,0.1-0.1,0.4-0.1,0.7
		c0,0.4,0,0.6,0,0.7c0.1,0,0.2,0,0.3,0c0.1,0,0.2,0,0.3-0.1c0.1,0,0.2-0.1,0.3-0.2c0.1-0.1,0.1-0.2,0.1-0.3c0-0.1,0-0.4,0.1-1
		C302.6,71.5,302.6,71.2,302.6,71.1z M301.6,69c0.1,0,0.1-0.1,0.2-0.2c0.1-0.1,0.2-0.2,0.2-0.3v-0.2v-0.3L301.6,69z M302.9,67.6
		c-0.2,0-0.4,0.1-0.4,0.4c0,0.3,0.1,0.4,0.4,0.4c0.3,0,0.4-0.1,0.4-0.4C303.4,67.8,303.2,67.6,302.9,67.6z M303.4,20.7
		c-0.2-0.1-0.3-0.1-0.3,0.1c0,0.2,0.1,0.3,0.3,0.3C303.7,20.9,303.7,20.7,303.4,20.7z M303.8,23.4c-0.2,0-0.3,0.1-0.3,0.4
		s0.1,0.4,0.3,0.4c0.3,0,0.4-0.1,0.4-0.4S304.1,23.4,303.8,23.4z M304.3,66.8c-0.2-0.1-0.3,0-0.3,0.2c0,0.2,0.1,0.3,0.3,0.2
		C304.6,67.1,304.6,66.9,304.3,66.8z M309.2,71.6c-0.2,0-0.4,0.2-0.4,0.5c0,0.3,0.1,0.5,0.4,0.5c0.3,0,0.4-0.2,0.4-0.5
		C309.6,71.8,309.5,71.6,309.2,71.6z M311,68.4c0,0.1,0,0.1,0.1,0.2c0,0.1,0,0.1,0.1,0.3c0.1,0.1,0.2,0.2,0.2,0.2
		c0.1,0,0.1-0.1,0.3-0.2c0.1-0.1,0.2-0.2,0.2-0.3v-0.2c0-0.1,0-0.1,0-0.1c0,0,0-0.1,0-0.1c0-0.1,0-0.3,0.1-0.4h-0.6
		c-0.1,0-0.1,0.1-0.2,0.2c-0.1,0.1-0.1,0.2-0.1,0.3L311,68.4z"/>
	<path class="st5" d="M335,68.5c-0.4,0-0.6,0.1-0.7,0.3c-0.1,0.2-0.2,0.4-0.3,0.5c-0.1,0.2-0.1,0.4-0.2,0.5
		c-0.1,0.2-0.2,0.3-0.4,0.3h-0.3c-0.1,0-0.2-0.1-0.4-0.2c-0.2-0.1-0.3-0.2-0.4-0.2c-0.2,0-0.4,0.1-0.4,0.4v0.2v0.3l2,2.1V73
		c0,0.2,0,0.4,0,0.5c0,0.2-0.2,0.3-0.4,0.4c-0.1,0-0.4-0.1-0.8-0.4c-0.4-0.2-0.7-0.4-0.8-0.6c-0.1-0.1-0.1-0.3,0.1-0.5
		c0.2-0.2,0.3-0.4,0.3-0.5c-1,0-1.6,0.1-1.7,0.3c-0.1,0.2-0.2,0.4-0.1,0.7c0.1,0.3,0.1,0.5,0.1,0.7c0,0.2-0.3,0.3-1,0.3
		c-0.9,0-1.5-0.4-1.8-1.2c-0.3-0.8-0.5-1.7-0.6-2.7c-0.1-1,0-2,0.1-3c0.1-1,0.2-1.7,0.2-2.1c-0.7,0-1.1,0-1.2,0.1
		c-0.1,0.1-0.4,0.1-0.9,0.1c-0.1,0-0.1,0-0.2-0.1c-0.1-0.1-0.1-0.2-0.2-0.4c-0.1-0.2-0.2-0.4-0.2-0.4c-0.1-0.1-0.3,0-0.7,0.2
		c-0.3,0.2-0.5,0.3-0.6,0.3h-0.2h-0.3c-0.1,0-0.1-0.1-0.2-0.2c-0.1-0.1-0.2-0.2-0.2-0.3c-0.1-1.2-0.3-2.7-0.7-4.4
		c-0.4-1.7-0.6-3.2-0.6-4.3c0-0.4,0.2-0.6,0.5-0.8c0.3-0.1,0.5-0.5,0.5-1c0-0.6-0.2-1-0.5-1.1c-0.4-0.2-0.5-0.6-0.5-1.1
		c0-0.8,0.1-1.4,0.2-1.7c0.1-0.3,0.3-0.5,0.6-0.6c0.2-0.1,0.5-0.2,0.8-0.2c0.3-0.1,0.5-0.3,0.7-0.7c-0.1-0.9-0.4-1.8-0.7-2.7
		c-0.4-0.8-0.5-1.6-0.5-2.4c0-0.4,0.1-0.6,0.2-0.7c0.1-0.1,0.3-0.1,0.6-0.1v-2.3h0.4c0.1,0.1,0.3,0.1,0.6,0.3
		c0.3,0.1,0.5,0.2,0.6,0.2v-0.4c0-0.4-0.3-0.8-0.9-1.2c-0.6-0.4-0.9-0.9-0.9-1.3c0-0.6,0.3-1,0.9-1c0.2,0,0.4,0.1,0.5,0.2
		c0.1,0.1,0.2,0.3,0.4,0.4c0.1,0.2,0.3,0.3,0.4,0.4s0.4,0.2,0.8,0.2c0.1,0,0.2,0,0.4,0c0.2,0,0.4,0,0.5,0c-0.1-0.1-0.4-0.5-0.9-1
		c-0.5-0.6-0.7-0.9-0.8-1c-0.1-0.1-0.1-0.1-0.1-0.2v-0.3c0-0.4,0.1-0.6,0.3-0.8c0.2-0.2,0.4-0.4,0.6-0.5c0.2-0.1,0.4-0.3,0.6-0.4
		s0.3-0.4,0.4-0.7c0.2-1.4,0.3-2.3,0.3-2.6c0-0.3,0.1-0.5,0.1-0.5c0.1,0,0.2,0,0.3-0.1c0.1-0.1,0.4-0.5,0.8-1.4l0.7-0.2
		c0.5-0.1,0.7-0.2,0.7-0.3c0-0.2-0.2-0.4-0.5-0.6c-0.3-0.2-0.6-0.3-0.9-0.4c0.6-0.2,1.1-0.5,1.4-0.8c0.3-0.4,0.5-0.8,0.8-1.3
		c0.2-0.5,0.4-0.9,0.6-1.4c0.2-0.5,0.4-0.9,0.8-1.1c0.4-0.4,0.7-0.6,1.1-0.8c0.4-0.2,0.8-0.4,1.3-0.6c0.4-0.2,0.9-0.5,1.2-0.8
		c0.4-0.3,0.7-0.8,0.8-1.3c0.4,0.3,0.9,0.4,1.4,0.4c0.1,0,0.3,0,0.7-0.1c0.3-0.1,0.5-0.2,0.5-0.4v-0.3l-0.4-0.4
		c0.1-0.2,0.5-0.5,1.1-0.9c0.6-0.4,1.2-0.7,1.9-1c0.7-0.3,1.4-0.6,2-0.8c0.6-0.2,1.1-0.4,1.3-0.4c0.1,0,0.2,0,0.6,0
		c0.3,0,0.5,0,0.7,0c0,0.2,0.1,0.6,0.2,1.1c0.1,0.5,0.2,0.9,0.2,1c0.1,0.1,0.1,0.2,0.3,0.4c0.1,0.1,0.2,0.2,0.3,0.2
		c0.4,0,0.6-0.1,0.9-0.3c0.2-0.2,0.4-0.4,0.6-0.6c0.1-0.2,0.3-0.4,0.4-0.6c0.1-0.2,0.3-0.3,0.4-0.3c0.6,0,1.1,0.3,1.4,0.9
		c0.4,0.6,0.8,0.9,1.3,0.9c0.4,0,0.6-0.1,0.7-0.3c0.1-0.2,0.2-0.4,0.3-0.7c0.1-0.3,0.2-0.5,0.3-0.8c0.1-0.2,0.3-0.4,0.6-0.4h0.3
		c0.1,0.1,0.3,0.1,0.5,0.2c0.2,0.1,0.3,0.2,0.3,0.2c0.1,0.1,0,0.3-0.2,0.6c-0.2,0.3-0.2,0.5-0.2,0.6c0,0.1,0.1,0.1,0.4,0.3
		c0.2,0.1,0.4,0.2,0.4,0.3c0.1,0,0.1,0.1,0.2,0.2c0.1,0.1,0.1,0.2,0.2,0.2c-0.5,0-0.8,0.3-0.8,0.8c0,0.5,0.1,0.9,0.4,1.3
		c0.3,0.4,0.7,0.6,1.1,0.6c0.1,0,0.1,0,0.3,0c0.1,0,0.2,0,0.3,0c0.1-0.1,0.5-0.1,1.1-0.2c0.6-0.1,1-0.2,1.1-0.2h0.2
		c0.1,0,0.3,0.3,0.6,0.9c0.3,0.6,0.6,1.3,0.9,2c0.3,0.7,0.6,1.4,0.8,2.1c0.2,0.7,0.4,1.1,0.4,1.2c-0.1,0-0.1,0-0.3,0
		c-0.1,0-0.2,0.2-0.2,0.5c0,0.1,0,0.3,0.1,0.6c0.1,0.3,0.2,0.5,0.2,0.5l0.8-0.8c0.5,0.4,1.1,0.8,1.7,1.4c0.6,0.6,1.2,1.2,1.7,1.9
		s1,1.3,1.4,1.9c0.4,0.6,0.7,1.2,0.9,1.7c0,0.1,0.1,0.2,0.4,0.4c0.3,0.2,0.4,0.3,0.5,0.4c0,0.1,0,0.2-0.1,0.4
		c-0.1,0.2-0.1,0.4-0.3,0.7c-0.1,0.2-0.2,0.5-0.3,0.7c-0.1,0.2-0.1,0.3-0.1,0.4c0.1,0.8,0.2,1.4,0.5,2c0.3,0.6,0.5,1.1,0.8,1.7
		c0.3,0.6,0.5,1.1,0.7,1.8c0.2,0.6,0.3,1.4,0.3,2.3c-0.1,0.2-0.4,0.4-1,0.4c-0.2,0-0.5-0.1-0.7-0.2c-0.2-0.1-0.5-0.2-0.8-0.2
		c-0.2,0-0.3,0.1-0.5,0.4c-0.1,0.3-0.3,0.6-0.4,1c-0.1,0.4-0.3,0.8-0.4,1.1c-0.1,0.4-0.1,0.6-0.1,0.7c0.4,0,0.7-0.2,0.8-0.5
		c0.1-0.4,0.4-0.7,0.8-1c0.2,0.3,0.6,0.4,1.1,0.4c0.5,0,0.7,0.2,0.7,0.5v0.1c0,0.1,0,0.1-0.1,0.2c-0.9,0.1-1.5,0.4-1.7,0.7
		c-0.3,0.4-0.5,0.7-0.6,1.1c-0.1,0.4-0.3,0.8-0.5,1.2c-0.2,0.4-0.7,0.6-1.4,0.7c0.1,0.1,0.1,0.3,0.2,0.4c0.1,0.2,0.1,0.3,0.1,0.4
		c0.1,0.2,0.1,0.5,0,0.8c0,0.4-0.1,0.8-0.1,1.2c-0.1,0.4-0.1,0.8-0.1,1.2c0,0.4,0,0.6,0,0.8h0.5c0-0.1-0.1-0.4-0.4-0.8
		c-0.3-0.4-0.4-0.6-0.4-0.8c0.6-0.2,1-0.4,1.4-0.6c0.3-0.1,0.8-0.3,1.3-0.6c0-0.1-0.1-0.2-0.4-0.4c-0.2-0.2-0.4-0.3-0.4-0.4
		c0-0.1,0-0.2-0.1-0.4c-0.1-0.2-0.2-0.4-0.2-0.5v-0.3v-0.2l0.4-0.4c0.4,0.2,0.6,0.6,0.7,1c0,0.4,0,0.9,0,1.5c0,0.5-0.1,1-0.1,1.5
		c0,0.5,0.1,0.9,0.3,1.2c0.1,0.1,0.3,0.2,0.7,0.4c0.4,0.2,0.6,0.4,0.7,0.5v0.2v0.3l-0.2,0.2c-0.1,0.1-0.1,0.1-0.2,0.1
		c-0.1,0-0.1,0-0.1,0.1c-0.1-0.2-0.2-0.4-0.4-0.4c-0.1,0-0.3,0-0.5,0c-0.4,0-0.7,0.1-0.8,0.4c0.4,0.2,0.7,0.4,0.8,0.6
		c0.1,0.2,0.1,0.5,0.1,0.9c0,0.3,0,0.7-0.1,1.1s-0.3,0.9-0.5,1.3c-0.2,0.4-0.5,0.7-0.8,0.9c-0.3,0.2-0.7,0.1-1.1-0.2
		c0.1,0.2,0.3,0.7,0.4,1.3s0.3,1,0.3,1.1c0,0.1-0.2,0.2-0.5,0.4c-0.3,0.2-0.7,0.5-1.1,0.8c-0.4,0.3-0.8,0.6-1.2,0.8
		c-0.4,0.2-0.7,0.4-0.9,0.4v2.3c-0.4,0-0.7-0.1-1-0.3c-0.3-0.2-0.4-0.5-0.4-0.9c-0.1,0.5-0.1,1-0.2,1.5c-0.1,0.5-0.3,1-0.6,1.5
		c-0.1,0-0.2-0.1-0.4-0.2c-0.2-0.1-0.3-0.2-0.4-0.2c-0.1,0-0.1,0-0.1-0.1v-0.2c0-0.3,0.1-0.5,0.3-0.7s0.3-0.4,0.3-0.7
		c0-0.6-0.2-1-0.6-1h-0.3c0,0.4-0.1,0.8-0.2,1.4c-0.1,0.6-0.3,1.2-0.5,1.8c-0.2,0.6-0.4,1.2-0.7,1.7c-0.2,0.5-0.5,0.8-0.8,1
		c-0.2,0.2-0.5,0.3-0.8,0.4c-0.3,0.1-0.5,0.2-0.7,0.4c-0.2,0.1-0.4,0.3-0.5,0.5c-0.1,0.2-0.2,0.5-0.1,0.8h-3.8
		c-0.3,0.5-0.8,0.8-1.5,0.8h-0.2c-0.1-0.1-0.2-0.2-0.4-0.5c-0.2-0.3-0.3-0.5-0.3-0.6c-0.5,0.6-1.1,1.1-1.8,1.4
		c-0.6,0.4-1.2,0.8-1.7,1.4c-0.3,0-0.4-0.1-0.4-0.4c0-0.4,0.1-0.8,0.4-1c0.2-0.3,0.5-0.5,0.8-0.7c0.3-0.2,0.6-0.4,0.8-0.7
		c0.2-0.2,0.4-0.5,0.4-0.9c0-0.5-0.2-0.8-0.6-0.9c-0.4-0.1-0.8-0.2-1.3-0.4l-0.3-0.1l-0.2,0.1c-0.2,0.1-0.4,0.3-0.5,0.6
		c-0.1,0.3-0.2,0.6-0.2,0.9c0,0.3,0,0.6,0,0.9c0,0.3,0,0.4,0,0.5c-0.1,0-0.3,0-0.5,0c-0.2,0-0.4,0-0.5,0c-0.6,0-1-0.1-1.3-0.4
		c-0.3-0.3-0.7-0.4-1.3-0.4c-0.3,0-0.5,0.2-0.6,0.6c-0.1,0.4-0.3,0.8-0.5,1.2c-0.2,0.4-0.6,0.8-1,1.2s-1.1,0.5-2.1,0.5
		c0-0.5,0-1.1-0.1-2c-0.1-0.9-0.2-1.5-0.4-1.9c-0.1-0.1-0.3-0.3-0.7-0.6c-0.4-0.4-0.6-0.6-0.7-0.7c-0.2-0.7-0.3-1.6-0.2-2.8
		C335,70.4,335,69.4,335,68.5z M323.5,66c0.1,0,0.2,0,0.2,0.1c0,0.1-0.1,0.2-0.2,0.2c-0.1,0.1-0.2,0-0.2-0.2
		C323.3,65.9,323.4,65.8,323.5,66z M323.5,44.1h0.5c0-0.2,0-0.5,0-0.8c0-0.3-0.2-0.5-0.5-0.6V44.1z M325.5,57.8l0.2,0.1h0.1v2.7h0.4
		c0.3,0,0.5,0,0.6-0.1c0.2-0.1,0.5-0.1,0.9-0.3c0.4-0.1,0.7-0.4,0.8-0.7c-0.1,0-0.1-0.1-0.3-0.2c-0.1-0.1-0.1-0.1-0.2-0.1
		c-0.1,0-0.2-0.1-0.4-0.2c-0.2-0.1-0.4-0.2-0.4-0.3c0-0.1,0-0.3,0-0.7c0-0.4,0-0.6,0-0.7c0-0.1-0.1-0.2-0.4-0.5
		c-0.3-0.3-0.6-0.5-0.9-0.8c-0.3-0.3-0.8-0.7-1.3-1.2v-0.2c0-0.1,0-0.1,0.1-0.2c0.1-0.1,0.1-0.2,0.3-0.4c0.1-0.2,0.2-0.3,0.2-0.4
		c0-0.1,0-0.1-0.1-0.3c-0.1-0.1-0.2-0.2-0.3-0.2h-0.3c-0.3,0-0.5,0.1-0.5,0.4c0,0.3,0,0.5,0,0.8c0,0.8,0,1.5,0.1,2.1
		c0.1,0.6,0.1,1.4,0.3,2.2c0.1-0.2,0.3-0.5,0.5-0.7C325,57.9,325.2,57.8,325.5,57.8z M325.2,67.9c-0.1,0.2-0.1,0.3-0.2,0.3
		c-0.1,0-0.2-0.1-0.2-0.3c-0.1-0.1,0-0.1,0.2-0.1C325.2,67.8,325.2,67.9,325.2,67.9z M325.2,51.6l0.4-0.4l-0.4-0.4l-0.4,0.4
		L325.2,51.6z M326,62.5h0.5v-0.4L326,62.5z M327.3,28.3v0.4h-0.4v-0.4H327.3z M327.3,51.6c-0.2,0-0.4,0.2-0.4,0.5
		c0,0.3,0.1,0.5,0.4,0.5c0.2,0,0.4-0.2,0.4-0.5C327.7,51.7,327.5,51.6,327.3,51.6z M327.6,31.2h0.4v-0.4h-0.4V31.2z M327.8,55
		c0,0.3,0.2,0.5,0.6,0.5c0.4,0,0.6,0,0.7,0c0-0.3,0-0.6-0.1-0.9c-0.1-0.3-0.3-0.5-0.6-0.5h-0.2c-0.1,0.1-0.2,0.2-0.3,0.4
		C327.8,54.8,327.8,54.9,327.8,55z M328,25.9c0.2,0,0.4,0.1,0.4,0.4s-0.1,0.4-0.4,0.4c-0.1,0-0.2-0.1-0.2-0.4S327.9,25.9,328,25.9z
		 M328.6,64.7c0.1,0.2,0.3,0.4,0.5,0.4c0.2,0.1,0.4,0.1,0.6,0.1v-0.5H328.6z M329.8,49.5h-0.4l0.4,0.4V49.5z M329.8,41.9
		c0.2,0.4,0.4,0.5,0.8,0.5v-0.5H329.8z M330.1,50.8c0.1,0.3,0.1,0.7,0.2,1.1c0.1,0.4,0.2,0.7,0.2,0.7h0.6c0-0.5,0-1,0-1.5
		c0-0.5-0.4-0.8-1-0.8V50.8z M331.6,65.7c0,0.7-0.2,1.3-0.6,1.8c-0.4,0.5-0.6,1.2-0.6,2c0.5,0,0.9-0.1,1.1-0.4
		c0.3-0.3,0.5-0.6,0.7-1.1c0.2-0.4,0.3-0.9,0.4-1.3c0.1-0.5,0.1-0.9,0.1-1.1c0-0.3-0.3-0.7-0.9-1.1c-0.6-0.5-1.1-0.7-1.5-0.7
		c0,0.5,0.1,0.9,0.2,1.1s0.3,0.3,0.4,0.4c0.2,0.1,0.3,0.1,0.4,0.2C331.5,65.3,331.6,65.5,331.6,65.7z M331,46.4c0,0.7,0.3,1.1,1,1.1
		v-1.8c-0.5-0.1-0.8,0-0.8,0.1C331.1,46,331,46.2,331,46.4z M332,44.1c0-0.2-0.1-0.3-0.3-0.3s-0.3,0.1-0.3,0.3
		c0.1,0.1,0.2,0.2,0.4,0.2C331.9,44.3,332,44.2,332,44.1z M332.3,51.1c0.1,0,0.1,0,0.2-0.1c0.1-0.1,0.1-0.2,0.2-0.2
		c0.1-0.2,0.1-0.6,0.3-1.2c0.1-0.6,0.2-1.1,0.2-1.2c0-0.1-0.1-0.1-0.2-0.2c-0.1-0.1-0.2-0.1-0.3-0.1l-0.2-0.1l-0.2,0.1V51.1z
		 M332.5,26.3c0,0.5,0.2,1,0.7,1.6c0.4,0.6,0.8,1.1,1.2,1.4c0-0.1,0-0.2,0-0.4c0-0.2,0-0.3,0-0.4c0-0.6-0.2-1.2-0.5-1.6
		C333.7,26.5,333.2,26.3,332.5,26.3z M334.2,55.7c-0.2,0.7,0.2,1.8,1.1,3.2c0.9,1.4,2,2.8,3.2,4.2c1.2,1.4,2.4,2.5,3.6,3.5
		c1.2,1,2,1.4,2.4,1.3c0.9,0.8,2,1.2,3.2,1.3c1.2,0.1,2.4,0.2,3.5,0.2c0.8,0,1.3-0.3,1.7-0.8s0.6-1.1,0.9-1.9s0.5-1.4,0.7-2.1
		c0.2-0.7,0.6-1.2,1.2-1.5l1.4-5.5c0.6,0,1.2-0.1,1.7-0.2c0.5-0.1,1.1-0.2,1.8-0.2c0-1,0.1-2,0.2-2.9c0.1-0.9,0.2-2,0.2-3.1h-0.2
		c-0.3,0-0.6,0.2-0.9,0.7c-0.3,0.5-0.6,1-0.9,1.6c-0.3,0.6-0.6,1.1-0.8,1.7c-0.2,0.5-0.5,0.8-0.7,0.9c-0.2-0.2-0.3-0.5-0.1-0.8
		c0.1-0.4,0.2-0.8,0.2-1.1V54c0-0.1,0-0.1,0.1-0.2c0.1-0.2,0.4-0.7,0.9-1.3c0.5-0.6,0.8-1,0.9-1.3c-0.1-0.2-0.2-0.4-0.4-0.4
		c-0.2,0-0.4,0-0.6,0c-0.2,0-0.4,0-0.5-0.1c-0.1-0.1-0.2-0.3-0.2-0.6c0-0.5,0.1-0.9,0.4-1.1c0.3-0.2,0.6-0.3,0.9-0.4
		c0.3-0.1,0.6-0.2,0.9-0.3c0.3-0.1,0.4-0.4,0.4-0.8h-3.2c0-0.1,0-0.1,0-0.2c0-0.1,0-0.2,0-0.2c0.1-0.1,0.2-0.2,0.4-0.4
		s0.3-0.2,0.4-0.2V43c0.2-0.1,0.5-0.2,0.9-0.3c0.4-0.1,0.6-0.3,0.7-0.6c-0.1-0.2-0.3-0.4-0.5-0.5c-0.2-0.1-0.5-0.2-0.7-0.3
		c-0.2-0.1-0.4-0.2-0.6-0.3c-0.2-0.1-0.3-0.3-0.3-0.6c0-0.4,0-0.7,0-0.9c0-0.3,0-0.6,0-1.1h-1.1c0-1-0.2-2-0.7-2.9
		c-0.4-0.9-0.6-1.9-0.5-2.9c-0.1-0.1-0.1-0.1-0.2-0.2c-0.1-0.1-0.2-0.1-0.2-0.2V32c0-0.9,0.2-1.6,0.7-2c0.4-0.4,0.8-0.9,1-1.5
		c-0.2-0.2-0.6-0.4-1.1-0.6c-0.5-0.2-1-0.5-1.5-0.7c-0.5-0.2-1-0.4-1.5-0.6c-0.4-0.2-0.7-0.3-0.8-0.3c-0.5,0-0.6,0.1-0.5,0.3
		c0.1,0.2,0,0.3-0.3,0.3l-0.1-0.1c-0.1-0.1-0.4-0.2-0.9-0.4c-0.5-0.2-0.7-0.4-0.8-0.5l-0.1-0.3c0-0.3,0.1-0.5,0.3-0.5
		c0.2-0.1,0.3-0.2,0.3-0.5v-0.4l-0.9,0.4c-0.1,0.1-0.4-0.1-0.8-0.5c-0.4-0.5-0.8-0.9-0.9-1.1c-0.1-0.2-0.1-0.4,0-0.7
		c0.1-0.3,0.1-0.5,0.1-0.8c0-0.3,0-0.5,0-0.8c-0.1-0.3-0.2-0.5-0.4-0.7H346c-0.2,0-0.6,0.3-1.1,1c-0.5,0.7-1,1.5-1.6,2.6
		c-0.6,1-1.2,2.2-1.8,3.4c-0.6,1.2-1.2,2.4-1.7,3.5c-0.5,1.1-0.9,2-1.2,2.8c-0.3,0.8-0.4,1.3-0.4,1.5c-0.5,0.1-0.9,0.2-1.1,0.4
		c-0.8,0.3-1.2,0.6-1.3,0.9l1.7,0.9c-0.4,0.5-0.9,0.8-1.5,0.8c-0.6,0.1-1.2,0.1-1.7,0.1c0,0.3,0.2,0.5,0.6,0.6
		c0.4,0.1,0.7,0.3,0.9,0.6c0.1,0.2,0.2,0.5,0.4,1c0.2,0.5,0.3,0.8,0.4,1h-1.1c0,0.1,0,0.3,0,0.6c0,0.3,0,0.7,0,1.1
		c0,0.4-0.1,0.8-0.2,1.2c-0.1,0.4-0.2,0.7-0.4,0.8v6.4c0.5,0.6,0.8,1.4,1,2.6c0.2,1.1,0.3,2,0.3,2.7v0.3c-0.3-0.3-0.6-0.5-0.9-0.7
		S334.6,55.7,334.2,55.7z M336.2,67.6h0.4v-0.4L336.2,67.6z M337.4,71.1c0.1-0.2,0-0.3-0.2-0.3s-0.3,0.1-0.3,0.3
		C337.1,71.4,337.2,71.4,337.4,71.1z M339.9,66.3c-0.2,0-0.3,0.2-0.3,0.5c0,0.3,0.1,0.5,0.3,0.5c0.3,0,0.4-0.2,0.4-0.5
		C340.3,66.5,340.2,66.3,339.9,66.3z M341.5,78.2c0.2,0,0.4,0.1,0.4,0.4c0,0.3-0.1,0.4-0.4,0.4c-0.2,0-0.4-0.1-0.4-0.4
		C341.2,78.3,341.3,78.2,341.5,78.2z M343.5,19c-0.4,0-0.6,0.2-0.6,0.7c-0.1,0.5-0.1,0.9-0.1,1.1h0.4l0.4-1.8L343.5,19z M343.2,72.7
		h1l-1-0.4V72.7z M344.5,13.2c0.2,0,0.3,0,0.4,0c0.1,0,0.2,0.2,0.4,0.5h-1.1v-0.5H344.5z M347.8,21.6c0,0.8,0.3,1.4,1,1.7
		c0.1,0,0.1-0.2,0.3-0.5c0.1-0.3,0.2-0.5,0.2-0.7c0-0.3-0.2-0.5-0.6-0.5C348.2,21.6,347.9,21.6,347.8,21.6z M348.8,19.5
		c-0.2,0-0.4,0.2-0.4,0.5c0,0.3,0.1,0.5,0.4,0.5c0.2,0,0.4-0.2,0.4-0.5C349.1,19.6,349,19.5,348.8,19.5z M350.6,23.3
		c0,0.4,0.1,0.6,0.4,0.8c0.3,0.1,0.5,0.2,0.8,0.2h0.2C351.7,23.6,351.2,23.3,350.6,23.3z M352.4,27.2c0,0.3-0.1,0.6-0.2,1
		c-0.1,0.4-0.4,0.5-0.7,0.5c0-0.2,0-0.5,0.1-0.9c0.1-0.4,0.3-0.6,0.6-0.6H352.4z M355.5,25c-0.1-0.1-0.2,0-0.2,0.2s0.1,0.3,0.2,0.3
		c0.1-0.1,0.2-0.1,0.2-0.3C355.7,25.1,355.6,25,355.5,25z M355.9,25.5c-0.2,0-0.3,0.1-0.3,0.4c0,0.3,0.1,0.4,0.3,0.4
		c0.3,0,0.4-0.1,0.4-0.4C356.3,25.6,356.2,25.5,355.9,25.5z M356.3,31.8c-0.2,0-0.4,0.1-0.4,0.4c0,0.3,0.1,0.4,0.4,0.4
		c0.2,0,0.3-0.1,0.3-0.4C356.6,31.9,356.5,31.8,356.3,31.8z M357.2,26.8h0.8l-0.8-0.4h-0.8L357.2,26.8z M356.7,23.9
		c0.5,0,0.8-0.1,0.9-0.4c0.1-0.3,0.2-0.6,0.2-0.9h-1.1V23.9z M360.1,40c-0.3,0-0.4,0.1-0.4,0.4s0.1,0.4,0.4,0.4
		c0.1,0,0.2-0.1,0.2-0.4S360.2,40,360.1,40z M362.1,54.1c-0.3,0.3-0.5,0.5-0.7,0.7c-0.2,0.1-0.3,0.3-0.4,0.4
		c-0.1,0.1-0.2,0.3-0.2,0.3c0,0.1,0.2,0.2,0.7,0.5c0.5,0.3,0.7,0.5,0.7,0.5c0.1,0.1,0.1,0.3,0.2,0.7c0.1,0.3,0.1,0.7,0.2,1.1
		c0.1,0.4,0.2,0.7,0.3,1c0.1,0.3,0.2,0.5,0.2,0.5c0,0.1,0,0.2,0.1,0.4c0.1,0.1,0.2,0.2,0.2,0.2c0.1,0,0.2-0.1,0.4-0.2
		c0.1-0.1,0.2-0.2,0.2-0.4v-0.1v-0.2c-0.1-0.2-0.2-0.3-0.3-0.4c-0.1-0.1-0.1-0.2-0.2-0.3c-0.1-0.1-0.1-0.1-0.1-0.2v-0.3v-0.2
		c0-0.1,0-0.1,0.1-0.1c0.1,0,0.1,0,0.2-0.1l0.3-0.3l0.1-0.3c0-0.1-0.1-0.4-0.2-0.8c-0.1-0.4-0.3-0.8-0.5-1.1
		c-0.2-0.4-0.4-0.7-0.6-1.1C362.5,54.3,362.3,54.1,362.1,54.1z M360.9,45.9c0.2,0.4,0.5,0.5,0.8,0.5v-0.5H360.9z M361.3,43
		c-0.2,0-0.4,0.1-0.4,0.4c0,0.3,0.1,0.4,0.4,0.4c0.2,0,0.3-0.1,0.3-0.4C361.6,43.1,361.5,43,361.3,43z M361.1,39.1
		c0,0.1,0.1,0.3,0.2,0.6c0.1,0.3,0.3,0.6,0.4,0.9c0.2,0.3,0.4,0.6,0.6,0.8c0.2,0.2,0.5,0.4,0.7,0.4c0.2,0,0.3,0,0.5,0
		c0.1,0,0.2-0.2,0.3-0.5l-0.7-0.4l0.4-0.8l2.4,0.8c0.1,0,0.2,0,0.4-0.1c0.1-0.1,0.2-0.2,0.2-0.3c0-0.4-0.2-0.8-0.7-1.1
		c-0.4-0.4-0.9-0.5-1.4-0.5h-0.3c-0.1,0.1-0.1,0.1-0.3,0.2c-0.1,0.1-0.2,0.2-0.2,0.2c-0.1,0-0.1,0-0.1,0c0,0-0.1,0-0.2,0
		c0-0.1,0-0.1,0-0.2c0-0.1,0-0.1,0-0.2c0.1,0,0.1-0.1,0.2-0.2c0.1-0.1,0.2-0.2,0.2-0.3v-0.2c0-0.5-0.2-0.8-0.7-1
		c-0.5-0.2-0.9-0.3-1.3-0.3c0,0.1,0,0.3,0,0.6c0,0.3,0,0.5-0.1,0.7c-0.1,0.2-0.2,0.4-0.3,0.5C361.1,38.8,361.1,39,361.1,39.1z
		 M362.1,67.3c0.5,0,0.8-0.2,0.9-0.5c0-0.1,0-0.1-0.1-0.2c-0.1-0.1-0.2-0.2-0.2-0.2h-0.3h-0.3V67.3z M362.9,31.4
		c-0.1,0-0.2,0.1-0.2,0.4c0,0.3,0.1,0.4,0.2,0.4c0.3,0,0.4-0.1,0.4-0.4C363.4,31.5,363.2,31.4,362.9,31.4z M363.5,62.1
		c0.1-0.1,0.1-0.2-0.1-0.2c-0.2,0-0.3,0.1-0.2,0.2c0.1,0.1,0.1,0.2,0.2,0.2C363.4,62.3,363.5,62.2,363.5,62.1z M363.1,45.9l0.4-0.4
		h-0.4V45.9z M363.8,51.3c0.1,0.3,0.2,0.5,0.4,0.5c0.1,0,0.3,0,0.5,0h0.2c0.1,0,0.1,0,0.2-0.1c-0.1-0.3-0.3-0.4-0.8-0.4H363.8z
		 M364.3,49.3c0-0.1,0.1-0.1,0.2-0.3c0.1-0.1,0.2-0.2,0.3-0.2v-0.1v-0.3c-0.1,0-0.1-0.1-0.3-0.2l-0.2-0.2V49.3z M365,36.4h0.4
		c0-0.1,0.1-0.2,0.3-0.4c0.2-0.1,0.2-0.3,0.1-0.4L365,36.4z M365.6,46.6c0.1-0.1,0-0.1-0.2-0.1c-0.2,0-0.3,0-0.3,0.1
		c0.1,0.2,0.2,0.3,0.4,0.3S365.6,46.8,365.6,46.6z M365.9,44.7c-0.1,0-0.2,0.1-0.2,0.4c0,0.3,0.1,0.4,0.2,0.4c0.3,0,0.4-0.1,0.4-0.4
		C366.3,44.8,366.1,44.7,365.9,44.7z M365.9,49.3c-0.1,0-0.2,0.1-0.2,0.4c0,0.3,0.1,0.4,0.2,0.4c0.3,0,0.4-0.1,0.4-0.4
		C366.3,49.4,366.1,49.3,365.9,49.3z M368.1,44.3v-0.5c0-0.6-0.3-0.9-0.8-0.9c-0.1,0-0.1,0-0.3,0c-0.1,0-0.2,0-0.3,0L368.1,44.3z
		 M367.1,62.8c0.1-0.2,0.5-0.4,1.1-0.4c0.6,0,1.1,0,1.3,0c0,0.2-0.3,0.3-0.8,0.4c-0.6,0.1-1,0.2-1.2,0.4L367.1,62.8z M367.7,40.8
		h0.4c0-0.4-0.1-0.6-0.4-0.8V40.8z M369.5,37.9c0.2,0,0.4,0.1,0.4,0.4c0,0.2-0.1,0.4-0.4,0.4c-0.2,0-0.3-0.1-0.3-0.4
		C369.2,38.1,369.3,37.9,369.5,37.9z M369.7,41.7c0.1-0.1,0-0.2-0.2-0.2s-0.2,0.1-0.2,0.2C369.5,42,369.6,42,369.7,41.7z
		 M370.1,49.7c0.4-0.4,0.9-0.5,1.3-0.5c0.5,0,0.7,0.3,0.8,0.9c0.1,0.6,0.1,1.1,0.1,1.4c-0.3,0-0.5-0.1-0.7-0.3
		c-0.1-0.2-0.3-0.4-0.4-0.6c-0.1-0.2-0.3-0.4-0.4-0.6S370.4,49.8,370.1,49.7z"/>
</g>
</svg>
