<svg id="Layer_1" data-name="Layer 1" xmlns="http://www.w3.org/2000/svg" viewBox="0 0 56.2 49.45"><defs><style>.cls-1{fill:#afa9d3;stroke:#7c72b4;}.cls-1,.cls-2,.cls-3,.cls-5,.cls-7{stroke-miterlimit:10;}.cls-1,.cls-2,.cls-7{stroke-width:0.66px;}.cls-2{fill:#231f20;}.cls-2,.cls-3,.cls-5,.cls-7{stroke:#231f20;}.cls-3{fill:#fff;stroke-width:0.19px;}.cls-4{fill:#7c72b4;}.cls-5{fill:#c0272d;stroke-width:0.5px;}.cls-6{fill:#f17aa9;}.cls-7{fill:none;}</style></defs><path class="cls-1" d="M20.85,15.17a1.3,1.3,0,0,0,.49-.92A1.86,1.86,0,0,0,21,13a9.71,9.71,0,0,0-1.31-1.79C17.25,8.79,17.74,8.62,16.18,7a2.8,2.8,0,0,1-.72-1.44c0-.23,0-.36.06-.45.23-.27.9,0,1.32.09A8,8,0,0,1,19.12,6.5c.43.31,1,.74,1.77,1.41.35.31.87.81,1.9,1.8.51.51,1.1.95,1.56,1.51a7.5,7.5,0,0,0,1,.93,1.06,1.06,0,0,0,.72.3.84.84,0,0,0,.48-.24,1,1,0,0,0,.24-.57c.08-.59.28-1.16.39-1.75.15-.77.2-1,.42-1.23a.8.8,0,0,1,.54-.3c.36,0,.57.55.9,1.38.63,1.59.8,2.07,1.11,2.74a7.38,7.38,0,0,0,1.11,1.71c.44.49.68.61.9.63a1.6,1.6,0,0,0,1.18-.63,5.78,5.78,0,0,0,1.17-2,6.12,6.12,0,0,1,1-2A.71.71,0,0,1,36,9.8c.33,0,.63.44.75.79.24.7-.22,1.16-.78,3.12-.21.72-.29,1.16-.06,1.53a1.25,1.25,0,0,0,.78.51,2.73,2.73,0,0,0,2.19-.84c1.21-1.16,1.06-2.66,2.13-3.21.11-.06.43-.22.63-.09s.2.46.18.78a8.23,8.23,0,0,1-.3,1.86c-.38,1.31,0,1.1-.45,3.3a2.81,2.81,0,0,0,0,1.47,1.87,1.87,0,0,0,.6.91,1.92,1.92,0,0,0,1.12.36c.45,0,1.06-.11,2.46-1.12s2-1.73,3.15-2c.27,0,.56-.07.69.09s-.08.84-.21,1.08a4.71,4.71,0,0,1-1.05,1.26c-.6.6-.89.9-1.2,1.15-.67.55-.91.61-1.2,1.05a2.12,2.12,0,0,0-.39,1,1.93,1.93,0,0,0,.33,1.32,2.26,2.26,0,0,0,1.65.72,7.43,7.43,0,0,0,2.52-.42,6.8,6.8,0,0,1,2.56-.18.83.83,0,0,1,.63.33c.15.32-.16.76-.3,1A4.53,4.53,0,0,1,50.2,27c-1.87.74-2.43.9-2.43.9a1.55,1.55,0,0,0-1,.6,1.33,1.33,0,0,0-.12.9c.2,1.57-.34,1.73-.09,3.58a3.42,3.42,0,0,0,.51,1.74c.36.49.7.54,1.74,1.05a13.06,13.06,0,0,1,3.31,2.4,1.69,1.69,0,0,1,.54,1A1.36,1.36,0,0,1,52,40.47c-.18.08-.55.17-2.11-.72-.81-.47-1.73-1.09-2.43-1.57s-1.13-.79-1.68-.84a1.87,1.87,0,0,0-1.41.42,2,2,0,0,0-.51,1.63,3.29,3.29,0,0,0,.57,1.41c.5.88.67.88,1.2,1.77a4.69,4.69,0,0,1,.71,1.91c0,.29.08.71-.12.84s-.26.08-1-.43c-.92-.66-1.08-1.06-1.9-1.56a1.88,1.88,0,0,0-1-.34,1.53,1.53,0,0,0-.74.17,2,2,0,0,0-.88,1.19,2.14,2.14,0,0,0-.17,1,2.33,2.33,0,0,0,.52,1.23,6.71,6.71,0,0,0,1.28,1.39c1,.82,1.29.89,2.47,1.84.83.66,1.12,1,1.2,1.47a1.26,1.26,0,0,1-.3,1.08c-.34.26-.83.12-1.41-.06a6,6,0,0,1-2-1c-.77-.62-.61-.77-1.66-1.77a8.45,8.45,0,0,0-1.65-1.3,3.29,3.29,0,0,0-1.41-.57c-.48,0-.66.11-1.86.54-1.52.55-1.6.45-1.8.69a3.5,3.5,0,0,0-.3,2.53,3.34,3.34,0,0,1,0,1.38c-.06.21-.19.73-.48.78s-.54-.31-.75-.6a4.61,4.61,0,0,1-.73-1.59,17.44,17.44,0,0,0-.39-2,2.55,2.55,0,0,0-.78-1.27,2.75,2.75,0,0,0-2.16-.33,3.46,3.46,0,0,0-1.23.48,3.86,3.86,0,0,0-1.05,1.09,4.38,4.38,0,0,0-.36.6,3.89,3.89,0,0,0-.42,1.2,2,2,0,0,0-.06.78c.1.69.59.88.51,1.35a.58.58,0,0,1-.39.48c-.29,0-.56-.34-.66-.48a4.06,4.06,0,0,1-.51-2.1c-.09-.77-.2-1.31-.33-1.95a5.17,5.17,0,0,0-.63-2.05,3.66,3.66,0,0,0-2-1A4,4,0,0,0,19.42,46c-.37.07-.8.23-2.19,1.41s-1.14,1.14-1.86,1.69a4.19,4.19,0,0,1-2.86,1.17,1.66,1.66,0,0,1-1.32-.72,1.13,1.13,0,0,1,0-1c.26-.44.8-.39,1.62-.66a6,6,0,0,0,2-1.14,4.32,4.32,0,0,0,1.56-2c.11-.33.3-.86,0-1.23a1.25,1.25,0,0,0-1-.36c-.92.07-1.06,1-2.16,1.29-.45.12-1.09.15-1.24-.12,0-.09-.1-.31.69-1.26S14,42,14.56,41.16a3.14,3.14,0,0,0,.81-1.89,1.92,1.92,0,0,0-.78-1.66c-.44-.21-.78,0-2.05.48a7.1,7.1,0,0,1-3.36.63c-.19,0-1.43-.19-1.53-.72,0-.14,0-.46,1.92-1.71.73-.47,1.91-1.19,3.15-2,.79-.54,1.21-.86,1.15-1.14s-.42-.37-1.06-.48a14.51,14.51,0,0,0-4.2.18c-1.56.15-2.37.09-3-.34-.17-.11-.69-.44-.67-.86a.86.86,0,0,1,.4-.59,6.63,6.63,0,0,1,3.07-.85,7.8,7.8,0,0,0,3.41-1.09,2.59,2.59,0,0,0,1.36-1.72,1.61,1.61,0,0,0-.19-.91c-.3-.58-.79-.7-1.86-1.23-2.09-1-2.2-1.61-2.22-1.78A.86.86,0,0,1,9,22.85c.29-.34.84-.22,1.81-.14,1.45.11,2.3.17,2.65-.28a1.15,1.15,0,0,0,.13-.83c0-.8-.46-1-1.13-2.25A11.07,11.07,0,0,1,11.71,17a.6.6,0,0,1,0-.52c.12-.13.39-.16,1.43.18a15,15,0,0,1,2.17.84,2.32,2.32,0,0,0,1.33.34.64.64,0,0,0,.47-.22c.14-.21,0-.48-.15-.92a8.51,8.51,0,0,1-.37-1.81c0-.54-.07-.88.14-1s.63,0,1.1.26c.71.35.72.55,1.27.81C19.47,15.14,20.28,15.53,20.85,15.17Z" transform="translate(-0.71 -4.66)"/><path class="cls-2" d="M18.17,26.8c-.8-.13-1.13-1.6-1.14-1.66A3.24,3.24,0,0,1,17.36,23a3.07,3.07,0,0,1,1.75-1.72,3,3,0,0,1,2.55.39,3.36,3.36,0,0,1,1.24,2.17A3.11,3.11,0,0,1,22.81,26c-.14.29-.32.68-.7.8s-.58-.11-1.55-.28a3.94,3.94,0,0,0-.88-.09C18.82,26.44,18.63,26.88,18.17,26.8Z" transform="translate(-0.71 -4.66)"/><ellipse class="cls-3" cx="19.11" cy="23.56" rx="1.01" ry="1.17" transform="matrix(1, -0.07, 0.07, 1, -2.32, -3.26)"/><circle class="cls-4" cx="14.52" cy="25.65" r="0.48"/><circle class="cls-4" cx="17.21" cy="27.94" r="0.32"/><circle class="cls-4" cx="23.22" cy="22.61" r="0.32"/><circle class="cls-4" cx="25.74" cy="19.41" r="0.68"/><circle class="cls-4" cx="26.41" cy="15.86" r="0.32"/><circle class="cls-4" cx="23.15" cy="14.24" r="0.49"/><circle class="cls-4" cx="30.83" cy="13.85" r="0.68"/><circle class="cls-4" cx="34.62" cy="14.04" r="0.29"/><circle class="cls-4" cx="36.49" cy="16.35" r="0.49"/><circle class="cls-4" cx="40.77" cy="19.96" r="0.64"/><circle class="cls-4" cx="40.77" cy="24.22" r="0.32"/><circle class="cls-4" cx="39.57" cy="26.33" r="0.65"/><circle class="cls-4" cx="42.31" cy="28.05" r="0.45"/><circle class="cls-4" cx="29.41" cy="19.35" r="0.65"/><circle class="cls-4" cx="32.09" cy="17.85" r="0.27"/><circle class="cls-4" cx="20.46" cy="38.65" r="0.53"/><circle class="cls-4" cx="16.84" cy="32.4" r="0.33"/><circle class="cls-4" cx="20.79" cy="32.29" r="0.33"/><circle class="cls-4" cx="22.78" cy="37.11" r="0.47"/><circle class="cls-4" cx="27.13" cy="39.09" r="0.42"/><circle class="cls-4" cx="34.85" cy="39.98" r="0.47"/><circle class="cls-4" cx="38.83" cy="33.99" r="0.6"/><path class="cls-4" d="M22.85,34.26a7.2,7.2,0,0,1,2.83-6A7.94,7.94,0,0,1,29.5,27a9.3,9.3,0,0,1,3.26.15,8.11,8.11,0,0,1,4.15,2.33,7.23,7.23,0,0,1,1.51,8,7.73,7.73,0,0,1-7.54,4.82,8.41,8.41,0,0,1-5.81-3A7.73,7.73,0,0,1,22.85,34.26Z" transform="translate(-0.71 -4.66)"/><path class="cls-5" d="M33.76,32.08a3.27,3.27,0,0,1-.43.76,5.31,5.31,0,0,1-2,1.43,8.18,8.18,0,0,1-3.57.78,9.66,9.66,0,0,1-3.9-.71A6.45,6.45,0,0,1,22,33.24h0l-.41-.42a4,4,0,0,1-1-2.39,2,2,0,0,1,.33-1.26,1.84,1.84,0,0,1,1.1-.59,7.15,7.15,0,0,1,1.57,0l3.42.31c1.62.14,3.54.29,5.67.57a1.58,1.58,0,0,1,1.19.81A2.13,2.13,0,0,1,33.76,32.08Z" transform="translate(-0.71 -4.66)"/><path class="cls-6" d="M33.33,32.18v.27a5.1,5.1,0,0,1-2,1.43,8,8,0,0,1-3.57.78,9.72,9.72,0,0,1-3.9-.7A6.49,6.49,0,0,1,22,32.85h0a8.75,8.75,0,0,1,7.71-2.12A10,10,0,0,1,33.33,32.18Z" transform="translate(-0.71 -4.66)"/><path class="cls-7" d="M11.77,29.08a16.16,16.16,0,0,1-4.84-3.33,16.84,16.84,0,0,1-3.51-5.22,20.73,20.73,0,0,1-.76-2" transform="translate(-0.71 -4.66)"/><circle class="cls-2" cx="1.97" cy="13.72" r="1.64"/><path class="cls-7" d="M47,31.92a6.53,6.53,0,0,0,3.06-.3,5.68,5.68,0,0,0,2.09-1.23,6.67,6.67,0,0,0,1.44-2.21,11.84,11.84,0,0,0,1.14-3.68,11.1,11.1,0,0,0,.11-1.66" transform="translate(-0.71 -4.66)"/><circle class="cls-2" cx="54.27" cy="18.18" r="1.6"/><path class="cls-2" d="M33.35,23.91a2.72,2.72,0,0,1,1.85-1.63,2.83,2.83,0,0,1,2,.22,3,3,0,0,1,1.16,1,4,4,0,0,1,.57,2.61c0,.65-.07,1.24-.51,1.57a1.42,1.42,0,0,1-.94.25,5.24,5.24,0,0,1-1-.31,2.62,2.62,0,0,0-.78-.19,3.3,3.3,0,0,0-.85.19c-.56.15-.63.19-.79.16a1.15,1.15,0,0,1-.6-.41,2.1,2.1,0,0,1-.31-1,5.34,5.34,0,0,1,0-1.35A4.38,4.38,0,0,1,33.35,23.91Z" transform="translate(-0.71 -4.66)"/><ellipse class="cls-3" cx="34.44" cy="19.9" rx="1.01" ry="1.17"/></svg>